 0
SECTION
 2
HEADER
 9
$ACADVER
 1
AC1009
 0
ENDSEC
 0
SECTION
 2
TABLES
 0
TABLE
 2
LTYPE
 70
1
 0
LTYPE
 2
CONTINUOUS
 70
64
 3
solid line
 72
65
 73
0
 40
0.0
 0
ENDTAB
 0
TABLE
 2
LAYER
 70
6
 0
LAYER
 2
0
 70
0
 62
7
 6
CONTINUOUS
 0
LAYER
 2
CUBE_4
 70
64
 62
7
 6
CONTINUOUS
 0
LAYER
 2
CUBE_6
 70
64
 62
7
 6
CONTINUOUS
 0
LAYER
 2
CUBE_5
 70
64
 62
7
 6
CONTINUOUS
 0
LAYER
 2
CUBE
 70
64
 62
7
 6
CONTINUOUS
 0
LAYER
 2
BOOLE
 70
64
 62
7
 6
CONTINUOUS
 0
LAYER
 2
CUBE_1
 70
64
 62
7
 6
CONTINUOUS
 0
LAYER
 2
CUBE_4_1
 70
64
 62
7
 6
CONTINUOUS
 0
LAYER
 2
CUBE_3
 70
64
 62
7
 6
CONTINUOUS
 0
LAYER
 2
CYLINDER_3
 70
64
 62
7
 6
CONTINUOUS
 0
LAYER
 2
CUBE_2
 70
64
 62
7
 6
CONTINUOUS
 0
LAYER
 2
CUBE_1_1
 70
64
 62
7
 6
CONTINUOUS
 0
LAYER
 2
CYLINDER_1
 70
64
 62
7
 6
CONTINUOUS
 0
LAYER
 2
CYLINDER
 70
64
 62
7
 6
CONTINUOUS
 0
LAYER
 2
CYLINDER_2
 70
64
 62
7
 6
CONTINUOUS
 0
ENDTAB
 0
ENDSEC
 0
SECTION
 2
BLOCKS
 0
ENDSEC
 0
SECTION
 2
ENTITIES
 0
POLYLINE
 8
CUBE_4
 66
1
 10
0.0
 20
0.0
 30
0.0
 70
64
 71
8
 72
6
 0
VERTEX
 8
CUBE_4
 10
-0.0679
 20
0.008
 30
0.1255
 70
192
 0
VERTEX
 8
CUBE_4
 10
-0.0679
 20
0.003
 30
0.1255
 70
192
 0
VERTEX
 8
CUBE_4
 10
-0.0679
 20
0.008
 30
0.0296
 70
192
 0
VERTEX
 8
CUBE_4
 10
-0.0679
 20
0.003
 30
0.0296
 70
192
 0
VERTEX
 8
CUBE_4
 10
-0.0599
 20
0.008
 30
0.0296
 70
192
 0
VERTEX
 8
CUBE_4
 10
-0.0599
 20
0.003
 30
0.0296
 70
192
 0
VERTEX
 8
CUBE_4
 10
-0.0599
 20
0.008
 30
0.1255
 70
192
 0
VERTEX
 8
CUBE_4
 10
-0.0599
 20
0.003
 30
0.1255
 70
192
 0
VERTEX
 8
CUBE_4
 10
0
 20
0
 30
0
 70
128
 71
1
 72
2
 73
4
 74
3
 0
VERTEX
 8
CUBE_4
 10
0
 20
0
 30
0
 70
128
 71
3
 72
4
 73
6
 74
5
 0
VERTEX
 8
CUBE_4
 10
0
 20
0
 30
0
 70
128
 71
5
 72
6
 73
8
 74
7
 0
VERTEX
 8
CUBE_4
 10
0
 20
0
 30
0
 70
128
 71
7
 72
8
 73
2
 74
1
 0
VERTEX
 8
CUBE_4
 10
0
 20
0
 30
0
 70
128
 71
2
 72
8
 73
6
 74
4
 0
VERTEX
 8
CUBE_4
 10
0
 20
0
 30
0
 70
128
 71
7
 72
1
 73
3
 74
5
 0
SEQEND
 0
POLYLINE
 8
CUBE_6
 66
1
 10
0.0
 20
0.0
 30
0.0
 70
64
 71
8
 72
6
 0
VERTEX
 8
CUBE_6
 10
0.0638
 20
0.008
 30
0.1258
 70
192
 0
VERTEX
 8
CUBE_6
 10
0.0638
 20
0.003
 30
0.1258
 70
192
 0
VERTEX
 8
CUBE_6
 10
0.0638
 20
0.008
 30
0.0293
 70
192
 0
VERTEX
 8
CUBE_6
 10
0.0638
 20
0.003
 30
0.0293
 70
192
 0
VERTEX
 8
CUBE_6
 10
0.0718
 20
0.008
 30
0.0293
 70
192
 0
VERTEX
 8
CUBE_6
 10
0.0718
 20
0.003
 30
0.0293
 70
192
 0
VERTEX
 8
CUBE_6
 10
0.0718
 20
0.008
 30
0.1258
 70
192
 0
VERTEX
 8
CUBE_6
 10
0.0718
 20
0.003
 30
0.1258
 70
192
 0
VERTEX
 8
CUBE_6
 10
0
 20
0
 30
0
 70
128
 71
1
 72
2
 73
4
 74
3
 0
VERTEX
 8
CUBE_6
 10
0
 20
0
 30
0
 70
128
 71
3
 72
4
 73
6
 74
5
 0
VERTEX
 8
CUBE_6
 10
0
 20
0
 30
0
 70
128
 71
5
 72
6
 73
8
 74
7
 0
VERTEX
 8
CUBE_6
 10
0
 20
0
 30
0
 70
128
 71
7
 72
8
 73
2
 74
1
 0
VERTEX
 8
CUBE_6
 10
0
 20
0
 30
0
 70
128
 71
2
 72
8
 73
6
 74
4
 0
VERTEX
 8
CUBE_6
 10
0
 20
0
 30
0
 70
128
 71
7
 72
1
 73
3
 74
5
 0
SEQEND
 0
POLYLINE
 8
CUBE_5
 66
1
 10
0.0
 20
0.0
 30
0.0
 70
64
 71
8
 72
6
 0
VERTEX
 8
CUBE_5
 10
0.0668
 20
0.008
 30
0.1436
 70
192
 0
VERTEX
 8
CUBE_5
 10
0.0668
 20
0.003
 30
0.1436
 70
192
 0
VERTEX
 8
CUBE_5
 10
-0.0703
 20
0.008
 30
0.1436
 70
192
 0
VERTEX
 8
CUBE_5
 10
-0.0703
 20
0.003
 30
0.1436
 70
192
 0
VERTEX
 8
CUBE_5
 10
-0.0703
 20
0.008
 30
0.1356
 70
192
 0
VERTEX
 8
CUBE_5
 10
-0.0703
 20
0.003
 30
0.1356
 70
192
 0
VERTEX
 8
CUBE_5
 10
0.0668
 20
0.008
 30
0.1356
 70
192
 0
VERTEX
 8
CUBE_5
 10
0.0668
 20
0.003
 30
0.1356
 70
192
 0
VERTEX
 8
CUBE_5
 10
0
 20
0
 30
0
 70
128
 71
1
 72
2
 73
4
 74
3
 0
VERTEX
 8
CUBE_5
 10
0
 20
0
 30
0
 70
128
 71
3
 72
4
 73
6
 74
5
 0
VERTEX
 8
CUBE_5
 10
0
 20
0
 30
0
 70
128
 71
5
 72
6
 73
8
 74
7
 0
VERTEX
 8
CUBE_5
 10
0
 20
0
 30
0
 70
128
 71
7
 72
8
 73
2
 74
1
 0
VERTEX
 8
CUBE_5
 10
0
 20
0
 30
0
 70
128
 71
2
 72
8
 73
6
 74
4
 0
VERTEX
 8
CUBE_5
 10
0
 20
0
 30
0
 70
128
 71
7
 72
1
 73
3
 74
5
 0
SEQEND
 0
POLYLINE
 8
CUBE
 66
1
 10
0.0
 20
0.0
 30
0.0
 70
64
 71
8
 72
6
 0
VERTEX
 8
CUBE
 10
-0.0666
 20
0.1661
 30
-0.0022
 70
192
 0
VERTEX
 8
CUBE
 10
-0.0666
 20
-0.0031
 30
-0.0022
 70
192
 0
VERTEX
 8
CUBE
 10
0.0666
 20
0.1661
 30
-0.0022
 70
192
 0
VERTEX
 8
CUBE
 10
0.0666
 20
-0.0031
 30
-0.0022
 70
192
 0
VERTEX
 8
CUBE
 10
0.0666
 20
0.1661
 30
0.0058
 70
192
 0
VERTEX
 8
CUBE
 10
0.0666
 20
-0.0031
 30
0.0058
 70
192
 0
VERTEX
 8
CUBE
 10
-0.0666
 20
0.1661
 30
0.0058
 70
192
 0
VERTEX
 8
CUBE
 10
-0.0666
 20
-0.0031
 30
0.0058
 70
192
 0
VERTEX
 8
CUBE
 10
0
 20
0
 30
0
 70
128
 71
1
 72
2
 73
4
 74
3
 0
VERTEX
 8
CUBE
 10
0
 20
0
 30
0
 70
128
 71
3
 72
4
 73
6
 74
5
 0
VERTEX
 8
CUBE
 10
0
 20
0
 30
0
 70
128
 71
5
 72
6
 73
8
 74
7
 0
VERTEX
 8
CUBE
 10
0
 20
0
 30
0
 70
128
 71
7
 72
8
 73
2
 74
1
 0
VERTEX
 8
CUBE
 10
0
 20
0
 30
0
 70
128
 71
2
 72
8
 73
6
 74
4
 0
VERTEX
 8
CUBE
 10
0
 20
0
 30
0
 70
128
 71
7
 72
1
 73
3
 74
5
 0
SEQEND
 0
POLYLINE
 8
CUBE_1
 66
1
 10
0.0
 20
0.0
 30
0.0
 70
64
 71
168
 72
150
 0
VERTEX
 8
CUBE_1
 10
-0.075
 20
-0.004
 30
-0.0002
 70
192
 0
VERTEX
 8
CUBE_1
 10
-0.075
 20
-0.004
 30
0.1498
 70
192
 0
VERTEX
 8
CUBE_1
 10
0.075
 20
-0.004
 30
-0.0002
 70
192
 0
VERTEX
 8
CUBE_1
 10
0.075
 20
-0.004
 30
0.1498
 70
192
 0
VERTEX
 8
CUBE_1
 10
0.075
 20
0.004
 30
-0.0002
 70
192
 0
VERTEX
 8
CUBE_1
 10
0.075
 20
0.004
 30
0.1498
 70
192
 0
VERTEX
 8
CUBE_1
 10
-0.075
 20
0.004
 30
-0.0002
 70
192
 0
VERTEX
 8
CUBE_1
 10
-0.075
 20
0.004
 30
0.1498
 70
192
 0
VERTEX
 8
CUBE_1
 10
0.0376
 20
-0.004
 30
0.1343
 70
192
 0
VERTEX
 8
CUBE_1
 10
0.0376
 20
-0.004
 30
0.1047
 70
192
 0
VERTEX
 8
CUBE_1
 10
-0.0376
 20
-0.004
 30
0.1343
 70
192
 0
VERTEX
 8
CUBE_1
 10
-0.0376
 20
-0.004
 30
0.1047
 70
192
 0
VERTEX
 8
CUBE_1
 10
0.0706
 20
-0.004
 30
0.0239
 70
192
 0
VERTEX
 8
CUBE_1
 10
0.0706
 20
-0.004
 30
0.0129
 70
192
 0
VERTEX
 8
CUBE_1
 10
-0.0706
 20
-0.004
 30
0.0239
 70
192
 0
VERTEX
 8
CUBE_1
 10
-0.0706
 20
-0.004
 30
0.0129
 70
192
 0
VERTEX
 8
CUBE_1
 10
0.0099
 20
-0.004
 30
0.0379
 70
192
 0
VERTEX
 8
CUBE_1
 10
0.0091
 20
-0.004
 30
0.0417
 70
192
 0
VERTEX
 8
CUBE_1
 10
0.007
 20
-0.004
 30
0.0449
 70
192
 0
VERTEX
 8
CUBE_1
 10
0.0038
 20
-0.004
 30
0.0471
 70
192
 0
VERTEX
 8
CUBE_1
 10
0
 20
-0.004
 30
0.0478
 70
192
 0
VERTEX
 8
CUBE_1
 10
-0.0038
 20
-0.004
 30
0.0471
 70
192
 0
VERTEX
 8
CUBE_1
 10
-0.007
 20
-0.004
 30
0.0449
 70
192
 0
VERTEX
 8
CUBE_1
 10
-0.0091
 20
-0.004
 30
0.0417
 70
192
 0
VERTEX
 8
CUBE_1
 10
-0.0099
 20
-0.004
 30
0.0379
 70
192
 0
VERTEX
 8
CUBE_1
 10
-0.0091
 20
-0.004
 30
0.0342
 70
192
 0
VERTEX
 8
CUBE_1
 10
-0.007
 20
-0.004
 30
0.0309
 70
192
 0
VERTEX
 8
CUBE_1
 10
-0.0038
 20
-0.004
 30
0.0288
 70
192
 0
VERTEX
 8
CUBE_1
 10
0
 20
-0.004
 30
0.0281
 70
192
 0
VERTEX
 8
CUBE_1
 10
0.0038
 20
-0.004
 30
0.0288
 70
192
 0
VERTEX
 8
CUBE_1
 10
0.007
 20
-0.004
 30
0.0309
 70
192
 0
VERTEX
 8
CUBE_1
 10
0.0091
 20
-0.004
 30
0.0342
 70
192
 0
VERTEX
 8
CUBE_1
 10
-0.0109
 20
-0.004
 30
0.0927
 70
192
 0
VERTEX
 8
CUBE_1
 10
-0.0109
 20
-0.004
 30
0.0827
 70
192
 0
VERTEX
 8
CUBE_1
 10
-0.0309
 20
-0.004
 30
0.0927
 70
192
 0
VERTEX
 8
CUBE_1
 10
-0.0309
 20
-0.004
 30
0.0827
 70
192
 0
VERTEX
 8
CUBE_1
 10
0.0309
 20
-0.004
 30
0.0929
 70
192
 0
VERTEX
 8
CUBE_1
 10
0.0309
 20
-0.004
 30
0.0829
 70
192
 0
VERTEX
 8
CUBE_1
 10
0.0109
 20
-0.004
 30
0.0929
 70
192
 0
VERTEX
 8
CUBE_1
 10
0.0109
 20
-0.004
 30
0.0829
 70
192
 0
VERTEX
 8
CUBE_1
 10
-0.042
 20
-0.004
 30
0.0707
 70
192
 0
VERTEX
 8
CUBE_1
 10
-0.0426
 20
-0.004
 30
0.0738
 70
192
 0
VERTEX
 8
CUBE_1
 10
-0.0443
 20
-0.004
 30
0.0764
 70
192
 0
VERTEX
 8
CUBE_1
 10
-0.0469
 20
-0.004
 30
0.0781
 70
192
 0
VERTEX
 8
CUBE_1
 10
-0.05
 20
-0.004
 30
0.0787
 70
192
 0
VERTEX
 8
CUBE_1
 10
-0.0531
 20
-0.004
 30
0.0781
 70
192
 0
VERTEX
 8
CUBE_1
 10
-0.0557
 20
-0.004
 30
0.0764
 70
192
 0
VERTEX
 8
CUBE_1
 10
-0.0574
 20
-0.004
 30
0.0738
 70
192
 0
VERTEX
 8
CUBE_1
 10
-0.058
 20
-0.004
 30
0.0707
 70
192
 0
VERTEX
 8
CUBE_1
 10
-0.0574
 20
-0.004
 30
0.0676
 70
192
 0
VERTEX
 8
CUBE_1
 10
-0.0557
 20
-0.004
 30
0.065
 70
192
 0
VERTEX
 8
CUBE_1
 10
-0.0531
 20
-0.004
 30
0.0633
 70
192
 0
VERTEX
 8
CUBE_1
 10
-0.05
 20
-0.004
 30
0.0627
 70
192
 0
VERTEX
 8
CUBE_1
 10
-0.0469
 20
-0.004
 30
0.0633
 70
192
 0
VERTEX
 8
CUBE_1
 10
-0.0443
 20
-0.004
 30
0.065
 70
192
 0
VERTEX
 8
CUBE_1
 10
-0.0426
 20
-0.004
 30
0.0676
 70
192
 0
VERTEX
 8
CUBE_1
 10
0.058
 20
-0.004
 30
0.0707
 70
192
 0
VERTEX
 8
CUBE_1
 10
0.0574
 20
-0.004
 30
0.0738
 70
192
 0
VERTEX
 8
CUBE_1
 10
0.0557
 20
-0.004
 30
0.0764
 70
192
 0
VERTEX
 8
CUBE_1
 10
0.0531
 20
-0.004
 30
0.0781
 70
192
 0
VERTEX
 8
CUBE_1
 10
0.05
 20
-0.004
 30
0.0787
 70
192
 0
VERTEX
 8
CUBE_1
 10
0.0469
 20
-0.004
 30
0.0781
 70
192
 0
VERTEX
 8
CUBE_1
 10
0.0443
 20
-0.004
 30
0.0764
 70
192
 0
VERTEX
 8
CUBE_1
 10
0.0426
 20
-0.004
 30
0.0738
 70
192
 0
VERTEX
 8
CUBE_1
 10
0.042
 20
-0.004
 30
0.0707
 70
192
 0
VERTEX
 8
CUBE_1
 10
0.0426
 20
-0.004
 30
0.0676
 70
192
 0
VERTEX
 8
CUBE_1
 10
0.0443
 20
-0.004
 30
0.065
 70
192
 0
VERTEX
 8
CUBE_1
 10
0.0469
 20
-0.004
 30
0.0633
 70
192
 0
VERTEX
 8
CUBE_1
 10
0.05
 20
-0.004
 30
0.0627
 70
192
 0
VERTEX
 8
CUBE_1
 10
0.0531
 20
-0.004
 30
0.0633
 70
192
 0
VERTEX
 8
CUBE_1
 10
0.0557
 20
-0.004
 30
0.065
 70
192
 0
VERTEX
 8
CUBE_1
 10
0.0574
 20
-0.004
 30
0.0676
 70
192
 0
VERTEX
 8
CUBE_1
 10
0.005
 20
-0.004
 30
0.0879
 70
192
 0
VERTEX
 8
CUBE_1
 10
0.0046
 20
-0.004
 30
0.0899
 70
192
 0
VERTEX
 8
CUBE_1
 10
0.0035
 20
-0.004
 30
0.0915
 70
192
 0
VERTEX
 8
CUBE_1
 10
0.0019
 20
-0.004
 30
0.0926
 70
192
 0
VERTEX
 8
CUBE_1
 10
0
 20
-0.004
 30
0.0929
 70
192
 0
VERTEX
 8
CUBE_1
 10
-0.0019
 20
-0.004
 30
0.0926
 70
192
 0
VERTEX
 8
CUBE_1
 10
-0.0035
 20
-0.004
 30
0.0915
 70
192
 0
VERTEX
 8
CUBE_1
 10
-0.0046
 20
-0.004
 30
0.0899
 70
192
 0
VERTEX
 8
CUBE_1
 10
-0.005
 20
-0.004
 30
0.0879
 70
192
 0
VERTEX
 8
CUBE_1
 10
-0.0046
 20
-0.004
 30
0.086
 70
192
 0
VERTEX
 8
CUBE_1
 10
-0.0035
 20
-0.004
 30
0.0844
 70
192
 0
VERTEX
 8
CUBE_1
 10
-0.0019
 20
-0.004
 30
0.0833
 70
192
 0
VERTEX
 8
CUBE_1
 10
0
 20
-0.004
 30
0.0829
 70
192
 0
VERTEX
 8
CUBE_1
 10
0.0019
 20
-0.004
 30
0.0833
 70
192
 0
VERTEX
 8
CUBE_1
 10
0.0035
 20
-0.004
 30
0.0844
 70
192
 0
VERTEX
 8
CUBE_1
 10
0.0046
 20
-0.004
 30
0.086
 70
192
 0
VERTEX
 8
CUBE_1
 10
0.0376
 20
0.004
 30
0.1343
 70
192
 0
VERTEX
 8
CUBE_1
 10
0.0376
 20
0.004
 30
0.1047
 70
192
 0
VERTEX
 8
CUBE_1
 10
-0.0376
 20
0.004
 30
0.1343
 70
192
 0
VERTEX
 8
CUBE_1
 10
-0.0376
 20
0.004
 30
0.1047
 70
192
 0
VERTEX
 8
CUBE_1
 10
0.0706
 20
0.004
 30
0.0239
 70
192
 0
VERTEX
 8
CUBE_1
 10
0.0706
 20
0.004
 30
0.0129
 70
192
 0
VERTEX
 8
CUBE_1
 10
-0.0706
 20
0.004
 30
0.0239
 70
192
 0
VERTEX
 8
CUBE_1
 10
-0.0706
 20
0.004
 30
0.0129
 70
192
 0
VERTEX
 8
CUBE_1
 10
0.0099
 20
0.004
 30
0.0379
 70
192
 0
VERTEX
 8
CUBE_1
 10
0.0091
 20
0.004
 30
0.0417
 70
192
 0
VERTEX
 8
CUBE_1
 10
0.007
 20
0.004
 30
0.0449
 70
192
 0
VERTEX
 8
CUBE_1
 10
0.0038
 20
0.004
 30
0.0471
 70
192
 0
VERTEX
 8
CUBE_1
 10
0
 20
0.004
 30
0.0478
 70
192
 0
VERTEX
 8
CUBE_1
 10
-0.0038
 20
0.004
 30
0.0471
 70
192
 0
VERTEX
 8
CUBE_1
 10
-0.007
 20
0.004
 30
0.0449
 70
192
 0
VERTEX
 8
CUBE_1
 10
-0.0091
 20
0.004
 30
0.0417
 70
192
 0
VERTEX
 8
CUBE_1
 10
-0.0099
 20
0.004
 30
0.0379
 70
192
 0
VERTEX
 8
CUBE_1
 10
-0.0091
 20
0.004
 30
0.0342
 70
192
 0
VERTEX
 8
CUBE_1
 10
-0.007
 20
0.004
 30
0.0309
 70
192
 0
VERTEX
 8
CUBE_1
 10
-0.0038
 20
0.004
 30
0.0288
 70
192
 0
VERTEX
 8
CUBE_1
 10
0
 20
0.004
 30
0.0281
 70
192
 0
VERTEX
 8
CUBE_1
 10
0.0038
 20
0.004
 30
0.0288
 70
192
 0
VERTEX
 8
CUBE_1
 10
0.007
 20
0.004
 30
0.0309
 70
192
 0
VERTEX
 8
CUBE_1
 10
0.0091
 20
0.004
 30
0.0342
 70
192
 0
VERTEX
 8
CUBE_1
 10
-0.0109
 20
0.004
 30
0.0927
 70
192
 0
VERTEX
 8
CUBE_1
 10
-0.0109
 20
0.004
 30
0.0827
 70
192
 0
VERTEX
 8
CUBE_1
 10
-0.0309
 20
0.004
 30
0.0927
 70
192
 0
VERTEX
 8
CUBE_1
 10
-0.0309
 20
0.004
 30
0.0827
 70
192
 0
VERTEX
 8
CUBE_1
 10
0.0309
 20
0.004
 30
0.0929
 70
192
 0
VERTEX
 8
CUBE_1
 10
0.0309
 20
0.004
 30
0.0829
 70
192
 0
VERTEX
 8
CUBE_1
 10
0.0109
 20
0.004
 30
0.0929
 70
192
 0
VERTEX
 8
CUBE_1
 10
0.0109
 20
0.004
 30
0.0829
 70
192
 0
VERTEX
 8
CUBE_1
 10
-0.042
 20
0.004
 30
0.0707
 70
192
 0
VERTEX
 8
CUBE_1
 10
-0.0426
 20
0.004
 30
0.0738
 70
192
 0
VERTEX
 8
CUBE_1
 10
-0.0443
 20
0.004
 30
0.0764
 70
192
 0
VERTEX
 8
CUBE_1
 10
-0.0469
 20
0.004
 30
0.0781
 70
192
 0
VERTEX
 8
CUBE_1
 10
-0.05
 20
0.004
 30
0.0787
 70
192
 0
VERTEX
 8
CUBE_1
 10
-0.0531
 20
0.004
 30
0.0781
 70
192
 0
VERTEX
 8
CUBE_1
 10
-0.0557
 20
0.004
 30
0.0764
 70
192
 0
VERTEX
 8
CUBE_1
 10
-0.0574
 20
0.004
 30
0.0738
 70
192
 0
VERTEX
 8
CUBE_1
 10
-0.058
 20
0.004
 30
0.0707
 70
192
 0
VERTEX
 8
CUBE_1
 10
-0.0574
 20
0.004
 30
0.0676
 70
192
 0
VERTEX
 8
CUBE_1
 10
-0.0557
 20
0.004
 30
0.065
 70
192
 0
VERTEX
 8
CUBE_1
 10
-0.0531
 20
0.004
 30
0.0633
 70
192
 0
VERTEX
 8
CUBE_1
 10
-0.05
 20
0.004
 30
0.0627
 70
192
 0
VERTEX
 8
CUBE_1
 10
-0.0469
 20
0.004
 30
0.0633
 70
192
 0
VERTEX
 8
CUBE_1
 10
-0.0443
 20
0.004
 30
0.065
 70
192
 0
VERTEX
 8
CUBE_1
 10
-0.0426
 20
0.004
 30
0.0676
 70
192
 0
VERTEX
 8
CUBE_1
 10
0.058
 20
0.004
 30
0.0707
 70
192
 0
VERTEX
 8
CUBE_1
 10
0.0574
 20
0.004
 30
0.0738
 70
192
 0
VERTEX
 8
CUBE_1
 10
0.0557
 20
0.004
 30
0.0764
 70
192
 0
VERTEX
 8
CUBE_1
 10
0.0531
 20
0.004
 30
0.0781
 70
192
 0
VERTEX
 8
CUBE_1
 10
0.05
 20
0.004
 30
0.0787
 70
192
 0
VERTEX
 8
CUBE_1
 10
0.0469
 20
0.004
 30
0.0781
 70
192
 0
VERTEX
 8
CUBE_1
 10
0.0443
 20
0.004
 30
0.0764
 70
192
 0
VERTEX
 8
CUBE_1
 10
0.0426
 20
0.004
 30
0.0738
 70
192
 0
VERTEX
 8
CUBE_1
 10
0.042
 20
0.004
 30
0.0707
 70
192
 0
VERTEX
 8
CUBE_1
 10
0.0426
 20
0.004
 30
0.0676
 70
192
 0
VERTEX
 8
CUBE_1
 10
0.0443
 20
0.004
 30
0.065
 70
192
 0
VERTEX
 8
CUBE_1
 10
0.0469
 20
0.004
 30
0.0633
 70
192
 0
VERTEX
 8
CUBE_1
 10
0.05
 20
0.004
 30
0.0627
 70
192
 0
VERTEX
 8
CUBE_1
 10
0.0531
 20
0.004
 30
0.0633
 70
192
 0
VERTEX
 8
CUBE_1
 10
0.0557
 20
0.004
 30
0.065
 70
192
 0
VERTEX
 8
CUBE_1
 10
0.0574
 20
0.004
 30
0.0676
 70
192
 0
VERTEX
 8
CUBE_1
 10
0.005
 20
0.004
 30
0.0879
 70
192
 0
VERTEX
 8
CUBE_1
 10
0.0046
 20
0.004
 30
0.0899
 70
192
 0
VERTEX
 8
CUBE_1
 10
0.0035
 20
0.004
 30
0.0915
 70
192
 0
VERTEX
 8
CUBE_1
 10
0.0019
 20
0.004
 30
0.0926
 70
192
 0
VERTEX
 8
CUBE_1
 10
0
 20
0.004
 30
0.0929
 70
192
 0
VERTEX
 8
CUBE_1
 10
-0.0019
 20
0.004
 30
0.0926
 70
192
 0
VERTEX
 8
CUBE_1
 10
-0.0035
 20
0.004
 30
0.0915
 70
192
 0
VERTEX
 8
CUBE_1
 10
-0.0046
 20
0.004
 30
0.0899
 70
192
 0
VERTEX
 8
CUBE_1
 10
-0.005
 20
0.004
 30
0.0879
 70
192
 0
VERTEX
 8
CUBE_1
 10
-0.0046
 20
0.004
 30
0.086
 70
192
 0
VERTEX
 8
CUBE_1
 10
-0.0035
 20
0.004
 30
0.0844
 70
192
 0
VERTEX
 8
CUBE_1
 10
-0.0019
 20
0.004
 30
0.0833
 70
192
 0
VERTEX
 8
CUBE_1
 10
0
 20
0.004
 30
0.0829
 70
192
 0
VERTEX
 8
CUBE_1
 10
0.0019
 20
0.004
 30
0.0833
 70
192
 0
VERTEX
 8
CUBE_1
 10
0.0035
 20
0.004
 30
0.0844
 70
192
 0
VERTEX
 8
CUBE_1
 10
0.0046
 20
0.004
 30
0.086
 70
192
 0
VERTEX
 8
CUBE_1
 10
0
 20
0
 30
0
 70
128
 71
4
 72
9
 73
11
 74
2
 0
VERTEX
 8
CUBE_1
 10
0
 20
0
 30
0
 70
128
 71
1
 72
16
 73
14
 74
3
 0
VERTEX
 8
CUBE_1
 10
0
 20
0
 30
0
 70
128
 71
18
 72
19
 73
66
 74
67
 0
VERTEX
 8
CUBE_1
 10
0
 20
0
 30
0
 70
128
 71
24
 72
55
 73
56
 74
23
 0
VERTEX
 8
CUBE_1
 10
0
 20
0
 30
0
 70
128
 71
20
 72
38
 73
65
 74
19
 0
VERTEX
 8
CUBE_1
 10
0
 20
0
 30
0
 70
128
 71
26
 72
52
 73
53
 74
25
 0
VERTEX
 8
CUBE_1
 10
0
 20
0
 30
0
 70
128
 71
23
 72
41
 73
36
 74
22
 0
VERTEX
 8
CUBE_1
 10
0
 20
0
 30
0
 70
128
 71
25
 72
54
 73
55
 74
24
 0
VERTEX
 8
CUBE_1
 10
0
 20
0
 30
0
 70
128
 71
67
 72
68
 73
17
 74
18
 0
VERTEX
 8
CUBE_1
 10
0
 20
0
 30
0
 70
128
 71
13
 72
17
 73
68
 74
69
 0
VERTEX
 8
CUBE_1
 10
0
 20
0
 30
0
 70
128
 71
9
 72
4
 73
59
 74
10
 0
VERTEX
 8
CUBE_1
 10
0
 20
0
 30
0
 70
128
 71
33
 72
35
 73
12
 74
77
 0
VERTEX
 8
CUBE_1
 10
0
 20
0
 30
0
 70
128
 71
37
 72
10
 73
63
 74
38
 0
VERTEX
 8
CUBE_1
 10
0
 20
0
 30
0
 70
128
 71
46
 72
12
 73
35
 74
45
 0
VERTEX
 8
CUBE_1
 10
0
 20
0
 30
0
 70
128
 71
22
 72
86
 73
40
 74
21
 0
VERTEX
 8
CUBE_1
 10
0
 20
0
 30
0
 70
128
 71
34
 72
33
 73
81
 74
82
 0
VERTEX
 8
CUBE_1
 10
0
 20
0
 30
0
 70
128
 71
40
 72
88
 73
73
 74
39
 0
VERTEX
 8
CUBE_1
 10
0
 20
0
 30
0
 70
128
 71
48
 72
2
 73
11
 74
47
 0
VERTEX
 8
CUBE_1
 10
0
 20
0
 30
0
 70
128
 71
77
 72
12
 73
10
 74
39
 0
VERTEX
 8
CUBE_1
 10
0
 20
0
 30
0
 70
128
 71
43
 72
44
 73
35
 74
36
 0
VERTEX
 8
CUBE_1
 10
0
 20
0
 30
0
 70
128
 71
20
 72
21
 73
40
 74
38
 0
VERTEX
 8
CUBE_1
 10
0
 20
0
 30
0
 70
128
 71
47
 72
11
 73
12
 74
46
 0
VERTEX
 8
CUBE_1
 10
0
 20
0
 30
0
 70
128
 71
22
 72
34
 73
84
 74
85
 0
VERTEX
 8
CUBE_1
 10
0
 20
0
 30
0
 70
128
 71
13
 72
4
 73
3
 74
14
 0
VERTEX
 8
CUBE_1
 10
0
 20
0
 30
0
 70
128
 71
1
 72
2
 73
15
 74
16
 0
VERTEX
 8
CUBE_1
 10
0
 20
0
 30
0
 70
128
 71
39
 72
73
 73
74
 74
74
 0
VERTEX
 8
CUBE_1
 10
0
 20
0
 30
0
 70
128
 71
36
 72
41
 73
42
 74
42
 0
VERTEX
 8
CUBE_1
 10
0
 20
0
 30
0
 70
128
 71
63
 72
64
 73
38
 74
38
 0
VERTEX
 8
CUBE_1
 10
0
 20
0
 30
0
 70
128
 71
36
 72
42
 73
43
 74
43
 0
VERTEX
 8
CUBE_1
 10
0
 20
0
 30
0
 70
128
 71
34
 72
82
 73
83
 74
83
 0
VERTEX
 8
CUBE_1
 10
0
 20
0
 30
0
 70
128
 71
39
 72
74
 73
75
 74
75
 0
VERTEX
 8
CUBE_1
 10
0
 20
0
 30
0
 70
128
 71
61
 72
62
 73
10
 74
10
 0
VERTEX
 8
CUBE_1
 10
0
 20
0
 30
0
 70
128
 71
87
 72
88
 73
40
 74
40
 0
VERTEX
 8
CUBE_1
 10
0
 20
0
 30
0
 70
128
 71
80
 72
81
 73
33
 74
33
 0
VERTEX
 8
CUBE_1
 10
0
 20
0
 30
0
 70
128
 71
79
 72
80
 73
33
 74
33
 0
VERTEX
 8
CUBE_1
 10
0
 20
0
 30
0
 70
128
 71
10
 72
62
 73
63
 74
63
 0
VERTEX
 8
CUBE_1
 10
0
 20
0
 30
0
 70
128
 71
65
 72
66
 73
19
 74
19
 0
VERTEX
 8
CUBE_1
 10
0
 20
0
 30
0
 70
128
 71
38
 72
64
 73
65
 74
65
 0
VERTEX
 8
CUBE_1
 10
0
 20
0
 30
0
 70
128
 71
10
 72
37
 73
39
 74
39
 0
VERTEX
 8
CUBE_1
 10
0
 20
0
 30
0
 70
128
 71
35
 72
44
 73
45
 74
45
 0
VERTEX
 8
CUBE_1
 10
0
 20
0
 30
0
 70
128
 71
60
 72
61
 73
10
 74
10
 0
VERTEX
 8
CUBE_1
 10
0
 20
0
 30
0
 70
128
 71
34
 72
83
 73
84
 74
84
 0
VERTEX
 8
CUBE_1
 10
0
 20
0
 30
0
 70
128
 71
86
 72
87
 73
40
 74
40
 0
VERTEX
 8
CUBE_1
 10
0
 20
0
 30
0
 70
128
 71
85
 72
86
 73
22
 74
22
 0
VERTEX
 8
CUBE_1
 10
0
 20
0
 30
0
 70
128
 71
36
 72
34
 73
22
 74
22
 0
VERTEX
 8
CUBE_1
 10
0
 20
0
 30
0
 70
128
 71
56
 72
41
 73
23
 74
23
 0
VERTEX
 8
CUBE_1
 10
0
 20
0
 30
0
 70
128
 71
39
 72
75
 73
76
 74
76
 0
VERTEX
 8
CUBE_1
 10
0
 20
0
 30
0
 70
128
 71
72
 72
57
 73
13
 74
13
 0
VERTEX
 8
CUBE_1
 10
0
 20
0
 30
0
 70
128
 71
71
 72
72
 73
13
 74
13
 0
VERTEX
 8
CUBE_1
 10
0
 20
0
 30
0
 70
128
 71
70
 72
71
 73
13
 74
13
 0
VERTEX
 8
CUBE_1
 10
0
 20
0
 30
0
 70
128
 71
69
 72
70
 73
13
 74
13
 0
VERTEX
 8
CUBE_1
 10
0
 20
0
 30
0
 70
128
 71
78
 72
79
 73
33
 74
33
 0
VERTEX
 8
CUBE_1
 10
0
 20
0
 30
0
 70
128
 71
32
 72
17
 73
13
 74
13
 0
VERTEX
 8
CUBE_1
 10
0
 20
0
 30
0
 70
128
 71
31
 72
32
 73
13
 74
13
 0
VERTEX
 8
CUBE_1
 10
0
 20
0
 30
0
 70
128
 71
53
 72
54
 73
25
 74
25
 0
VERTEX
 8
CUBE_1
 10
0
 20
0
 30
0
 70
128
 71
39
 72
76
 73
77
 74
77
 0
VERTEX
 8
CUBE_1
 10
0
 20
0
 30
0
 70
128
 71
30
 72
31
 73
13
 74
13
 0
VERTEX
 8
CUBE_1
 10
0
 20
0
 30
0
 70
128
 71
77
 72
78
 73
33
 74
33
 0
VERTEX
 8
CUBE_1
 10
0
 20
0
 30
0
 70
128
 71
59
 72
60
 73
10
 74
10
 0
VERTEX
 8
CUBE_1
 10
0
 20
0
 30
0
 70
128
 71
52
 72
26
 73
27
 74
27
 0
VERTEX
 8
CUBE_1
 10
0
 20
0
 30
0
 70
128
 71
13
 72
57
 73
58
 74
58
 0
VERTEX
 8
CUBE_1
 10
0
 20
0
 30
0
 70
128
 71
4
 72
13
 73
58
 74
58
 0
VERTEX
 8
CUBE_1
 10
0
 20
0
 30
0
 70
128
 71
4
 72
58
 73
59
 74
59
 0
VERTEX
 8
CUBE_1
 10
0
 20
0
 30
0
 70
128
 71
51
 72
52
 73
27
 74
27
 0
VERTEX
 8
CUBE_1
 10
0
 20
0
 30
0
 70
128
 71
29
 72
30
 73
13
 74
13
 0
VERTEX
 8
CUBE_1
 10
0
 20
0
 30
0
 70
128
 71
29
 72
13
 73
15
 74
15
 0
VERTEX
 8
CUBE_1
 10
0
 20
0
 30
0
 70
128
 71
28
 72
29
 73
15
 74
15
 0
VERTEX
 8
CUBE_1
 10
0
 20
0
 30
0
 70
128
 71
27
 72
28
 73
15
 74
15
 0
VERTEX
 8
CUBE_1
 10
0
 20
0
 30
0
 70
128
 71
51
 72
27
 73
15
 74
15
 0
VERTEX
 8
CUBE_1
 10
0
 20
0
 30
0
 70
128
 71
50
 72
51
 73
15
 74
15
 0
VERTEX
 8
CUBE_1
 10
0
 20
0
 30
0
 70
128
 71
49
 72
50
 73
15
 74
15
 0
VERTEX
 8
CUBE_1
 10
0
 20
0
 30
0
 70
128
 71
48
 72
49
 73
15
 74
15
 0
VERTEX
 8
CUBE_1
 10
0
 20
0
 30
0
 70
128
 71
48
 72
15
 73
2
 74
2
 0
VERTEX
 8
CUBE_1
 10
0
 20
0
 30
0
 70
128
 71
7
 72
1
 73
3
 74
5
 0
VERTEX
 8
CUBE_1
 10
0
 20
0
 30
0
 70
128
 71
2
 72
8
 73
6
 74
4
 0
VERTEX
 8
CUBE_1
 10
0
 20
0
 30
0
 70
128
 71
7
 72
8
 73
2
 74
1
 0
VERTEX
 8
CUBE_1
 10
0
 20
0
 30
0
 70
128
 71
8
 72
91
 73
89
 74
6
 0
VERTEX
 8
CUBE_1
 10
0
 20
0
 30
0
 70
128
 71
5
 72
94
 73
96
 74
7
 0
VERTEX
 8
CUBE_1
 10
0
 20
0
 30
0
 70
128
 71
98
 72
147
 73
146
 74
99
 0
VERTEX
 8
CUBE_1
 10
0
 20
0
 30
0
 70
128
 71
104
 72
103
 73
136
 74
135
 0
VERTEX
 8
CUBE_1
 10
0
 20
0
 30
0
 70
128
 71
99
 72
145
 73
118
 74
100
 0
VERTEX
 8
CUBE_1
 10
0
 20
0
 30
0
 70
128
 71
112
 72
150
 73
149
 74
97
 0
VERTEX
 8
CUBE_1
 10
0
 20
0
 30
0
 70
128
 71
135
 72
134
 73
105
 74
104
 0
VERTEX
 8
CUBE_1
 10
0
 20
0
 30
0
 70
128
 71
97
 72
148
 73
147
 74
98
 0
VERTEX
 8
CUBE_1
 10
0
 20
0
 30
0
 70
128
 71
95
 72
105
 73
134
 74
133
 0
VERTEX
 8
CUBE_1
 10
0
 20
0
 30
0
 70
128
 71
91
 72
8
 73
127
 74
92
 0
VERTEX
 8
CUBE_1
 10
0
 20
0
 30
0
 70
128
 71
113
 72
157
 73
92
 74
115
 0
VERTEX
 8
CUBE_1
 10
0
 20
0
 30
0
 70
128
 71
140
 72
90
 73
117
 74
141
 0
VERTEX
 8
CUBE_1
 10
0
 20
0
 30
0
 70
128
 71
115
 72
92
 73
123
 74
116
 0
VERTEX
 8
CUBE_1
 10
0
 20
0
 30
0
 70
128
 71
100
 72
164
 73
114
 74
101
 0
VERTEX
 8
CUBE_1
 10
0
 20
0
 30
0
 70
128
 71
114
 72
162
 73
161
 74
113
 0
VERTEX
 8
CUBE_1
 10
0
 20
0
 30
0
 70
128
 71
103
 72
102
 73
114
 74
116
 0
VERTEX
 8
CUBE_1
 10
0
 20
0
 30
0
 70
128
 71
120
 72
119
 73
153
 74
168
 0
VERTEX
 8
CUBE_1
 10
0
 20
0
 30
0
 70
128
 71
138
 72
6
 73
89
 74
139
 0
VERTEX
 8
CUBE_1
 10
0
 20
0
 30
0
 70
128
 71
157
 72
119
 73
90
 74
92
 0
VERTEX
 8
CUBE_1
 10
0
 20
0
 30
0
 70
128
 71
143
 72
142
 73
117
 74
118
 0
VERTEX
 8
CUBE_1
 10
0
 20
0
 30
0
 70
128
 71
139
 72
89
 73
90
 74
140
 0
VERTEX
 8
CUBE_1
 10
0
 20
0
 30
0
 70
128
 71
103
 72
116
 73
121
 74
136
 0
VERTEX
 8
CUBE_1
 10
0
 20
0
 30
0
 70
128
 71
100
 72
120
 73
167
 74
166
 0
VERTEX
 8
CUBE_1
 10
0
 20
0
 30
0
 70
128
 71
5
 72
6
 73
93
 74
94
 0
VERTEX
 8
CUBE_1
 10
0
 20
0
 30
0
 70
128
 71
95
 72
8
 73
7
 74
96
 0
VERTEX
 8
CUBE_1
 10
0
 20
0
 30
0
 70
128
 71
113
 72
161
 73
160
 74
160
 0
VERTEX
 8
CUBE_1
 10
0
 20
0
 30
0
 70
128
 71
118
 72
145
 73
144
 74
144
 0
VERTEX
 8
CUBE_1
 10
0
 20
0
 30
0
 70
128
 71
118
 72
144
 73
143
 74
143
 0
VERTEX
 8
CUBE_1
 10
0
 20
0
 30
0
 70
128
 71
123
 72
122
 73
116
 74
116
 0
VERTEX
 8
CUBE_1
 10
0
 20
0
 30
0
 70
128
 71
120
 72
168
 73
167
 74
167
 0
VERTEX
 8
CUBE_1
 10
0
 20
0
 30
0
 70
128
 71
113
 72
160
 73
159
 74
159
 0
VERTEX
 8
CUBE_1
 10
0
 20
0
 30
0
 70
128
 71
125
 72
124
 73
92
 74
92
 0
VERTEX
 8
CUBE_1
 10
0
 20
0
 30
0
 70
128
 71
154
 72
153
 73
119
 74
119
 0
VERTEX
 8
CUBE_1
 10
0
 20
0
 30
0
 70
128
 71
155
 72
154
 73
119
 74
119
 0
VERTEX
 8
CUBE_1
 10
0
 20
0
 30
0
 70
128
 71
163
 72
162
 73
114
 74
114
 0
VERTEX
 8
CUBE_1
 10
0
 20
0
 30
0
 70
128
 71
92
 72
124
 73
123
 74
123
 0
VERTEX
 8
CUBE_1
 10
0
 20
0
 30
0
 70
128
 71
116
 72
122
 73
121
 74
121
 0
VERTEX
 8
CUBE_1
 10
0
 20
0
 30
0
 70
128
 71
114
 72
102
 73
101
 74
101
 0
VERTEX
 8
CUBE_1
 10
0
 20
0
 30
0
 70
128
 71
117
 72
142
 73
141
 74
141
 0
VERTEX
 8
CUBE_1
 10
0
 20
0
 30
0
 70
128
 71
126
 72
125
 73
92
 74
92
 0
VERTEX
 8
CUBE_1
 10
0
 20
0
 30
0
 70
128
 71
164
 72
163
 73
114
 74
114
 0
VERTEX
 8
CUBE_1
 10
0
 20
0
 30
0
 70
128
 71
165
 72
164
 73
100
 74
100
 0
VERTEX
 8
CUBE_1
 10
0
 20
0
 30
0
 70
128
 71
166
 72
165
 73
100
 74
100
 0
VERTEX
 8
CUBE_1
 10
0
 20
0
 30
0
 70
128
 71
118
 72
120
 73
100
 74
100
 0
VERTEX
 8
CUBE_1
 10
0
 20
0
 30
0
 70
128
 71
146
 72
145
 73
99
 74
99
 0
VERTEX
 8
CUBE_1
 10
0
 20
0
 30
0
 70
128
 71
156
 72
155
 73
119
 74
119
 0
VERTEX
 8
CUBE_1
 10
0
 20
0
 30
0
 70
128
 71
130
 72
129
 73
95
 74
95
 0
VERTEX
 8
CUBE_1
 10
0
 20
0
 30
0
 70
128
 71
131
 72
130
 73
95
 74
95
 0
VERTEX
 8
CUBE_1
 10
0
 20
0
 30
0
 70
128
 71
132
 72
131
 73
95
 74
95
 0
VERTEX
 8
CUBE_1
 10
0
 20
0
 30
0
 70
128
 71
133
 72
132
 73
95
 74
95
 0
VERTEX
 8
CUBE_1
 10
0
 20
0
 30
0
 70
128
 71
113
 72
159
 73
158
 74
158
 0
VERTEX
 8
CUBE_1
 10
0
 20
0
 30
0
 70
128
 71
106
 72
105
 73
95
 74
95
 0
VERTEX
 8
CUBE_1
 10
0
 20
0
 30
0
 70
128
 71
107
 72
106
 73
95
 74
95
 0
VERTEX
 8
CUBE_1
 10
0
 20
0
 30
0
 70
128
 71
149
 72
148
 73
97
 74
97
 0
VERTEX
 8
CUBE_1
 10
0
 20
0
 30
0
 70
128
 71
157
 72
156
 73
119
 74
119
 0
VERTEX
 8
CUBE_1
 10
0
 20
0
 30
0
 70
128
 71
108
 72
107
 73
95
 74
95
 0
VERTEX
 8
CUBE_1
 10
0
 20
0
 30
0
 70
128
 71
113
 72
158
 73
157
 74
157
 0
VERTEX
 8
CUBE_1
 10
0
 20
0
 30
0
 70
128
 71
127
 72
126
 73
92
 74
92
 0
VERTEX
 8
CUBE_1
 10
0
 20
0
 30
0
 70
128
 71
90
 72
119
 73
117
 74
117
 0
VERTEX
 8
CUBE_1
 10
0
 20
0
 30
0
 70
128
 71
150
 72
112
 73
111
 74
111
 0
VERTEX
 8
CUBE_1
 10
0
 20
0
 30
0
 70
128
 71
95
 72
129
 73
128
 74
128
 0
VERTEX
 8
CUBE_1
 10
0
 20
0
 30
0
 70
128
 71
8
 72
95
 73
128
 74
128
 0
VERTEX
 8
CUBE_1
 10
0
 20
0
 30
0
 70
128
 71
8
 72
128
 73
127
 74
127
 0
VERTEX
 8
CUBE_1
 10
0
 20
0
 30
0
 70
128
 71
151
 72
150
 73
111
 74
111
 0
VERTEX
 8
CUBE_1
 10
0
 20
0
 30
0
 70
128
 71
109
 72
108
 73
95
 74
95
 0
VERTEX
 8
CUBE_1
 10
0
 20
0
 30
0
 70
128
 71
109
 72
95
 73
93
 74
93
 0
VERTEX
 8
CUBE_1
 10
0
 20
0
 30
0
 70
128
 71
110
 72
109
 73
93
 74
93
 0
VERTEX
 8
CUBE_1
 10
0
 20
0
 30
0
 70
128
 71
111
 72
110
 73
93
 74
93
 0
VERTEX
 8
CUBE_1
 10
0
 20
0
 30
0
 70
128
 71
151
 72
111
 73
93
 74
93
 0
VERTEX
 8
CUBE_1
 10
0
 20
0
 30
0
 70
128
 71
152
 72
151
 73
93
 74
93
 0
VERTEX
 8
CUBE_1
 10
0
 20
0
 30
0
 70
128
 71
137
 72
152
 73
93
 74
93
 0
VERTEX
 8
CUBE_1
 10
0
 20
0
 30
0
 70
128
 71
138
 72
137
 73
93
 74
93
 0
VERTEX
 8
CUBE_1
 10
0
 20
0
 30
0
 70
128
 71
138
 72
93
 73
6
 74
6
 0
VERTEX
 8
CUBE_1
 10
0
 20
0
 30
0
 70
128
 71
3
 72
4
 73
6
 74
5
 0
SEQEND
 0
POLYLINE
 8
CUBE_4_1
 66
1
 10
0.0
 20
0.0
 30
0.0
 70
64
 71
8
 72
4
 0
VERTEX
 8
CUBE_4_1
 10
0.0376
 20
-0.004
 30
0.1343
 70
192
 0
VERTEX
 8
CUBE_4_1
 10
0.0376
 20
-0.004
 30
0.1047
 70
192
 0
VERTEX
 8
CUBE_4_1
 10
-0.0376
 20
-0.004
 30
0.1343
 70
192
 0
VERTEX
 8
CUBE_4_1
 10
-0.0376
 20
-0.004
 30
0.1047
 70
192
 0
VERTEX
 8
CUBE_4_1
 10
0.0376
 20
0.004
 30
0.1343
 70
192
 0
VERTEX
 8
CUBE_4_1
 10
0.0376
 20
0.004
 30
0.1047
 70
192
 0
VERTEX
 8
CUBE_4_1
 10
-0.0376
 20
0.004
 30
0.1343
 70
192
 0
VERTEX
 8
CUBE_4_1
 10
-0.0376
 20
0.004
 30
0.1047
 70
192
 0
VERTEX
 8
CUBE_4_1
 10
0
 20
0
 30
0
 70
128
 71
2
 72
6
 73
5
 74
1
 0
VERTEX
 8
CUBE_4_1
 10
0
 20
0
 30
0
 70
128
 71
8
 72
4
 73
3
 74
7
 0
VERTEX
 8
CUBE_4_1
 10
0
 20
0
 30
0
 70
128
 71
7
 72
3
 73
1
 74
5
 0
VERTEX
 8
CUBE_4_1
 10
0
 20
0
 30
0
 70
128
 71
6
 72
2
 73
4
 74
8
 0
SEQEND
 0
POLYLINE
 8
CUBE_3
 66
1
 10
0.0
 20
0.0
 30
0.0
 70
64
 71
8
 72
4
 0
VERTEX
 8
CUBE_3
 10
0.0706
 20
-0.004
 30
0.0239
 70
192
 0
VERTEX
 8
CUBE_3
 10
0.0706
 20
-0.004
 30
0.0129
 70
192
 0
VERTEX
 8
CUBE_3
 10
-0.0706
 20
-0.004
 30
0.0239
 70
192
 0
VERTEX
 8
CUBE_3
 10
-0.0706
 20
-0.004
 30
0.0129
 70
192
 0
VERTEX
 8
CUBE_3
 10
0.0706
 20
0.004
 30
0.0239
 70
192
 0
VERTEX
 8
CUBE_3
 10
0.0706
 20
0.004
 30
0.0129
 70
192
 0
VERTEX
 8
CUBE_3
 10
-0.0706
 20
0.004
 30
0.0239
 70
192
 0
VERTEX
 8
CUBE_3
 10
-0.0706
 20
0.004
 30
0.0129
 70
192
 0
VERTEX
 8
CUBE_3
 10
0
 20
0
 30
0
 70
128
 71
2
 72
6
 73
5
 74
1
 0
VERTEX
 8
CUBE_3
 10
0
 20
0
 30
0
 70
128
 71
8
 72
4
 73
3
 74
7
 0
VERTEX
 8
CUBE_3
 10
0
 20
0
 30
0
 70
128
 71
7
 72
3
 73
1
 74
5
 0
VERTEX
 8
CUBE_3
 10
0
 20
0
 30
0
 70
128
 71
6
 72
2
 73
4
 74
8
 0
SEQEND
 0
POLYLINE
 8
CYLINDER_3
 66
1
 10
0.0
 20
0.0
 30
0.0
 70
64
 71
48
 72
32
 0
VERTEX
 8
CYLINDER_3
 10
0.0099
 20
0
 30
0.0379
 70
192
 0
VERTEX
 8
CYLINDER_3
 10
0.0091
 20
0
 30
0.0417
 70
192
 0
VERTEX
 8
CYLINDER_3
 10
0.007
 20
0
 30
0.0449
 70
192
 0
VERTEX
 8
CYLINDER_3
 10
0.0038
 20
0
 30
0.0471
 70
192
 0
VERTEX
 8
CYLINDER_3
 10
0
 20
0
 30
0.0478
 70
192
 0
VERTEX
 8
CYLINDER_3
 10
-0.0038
 20
0
 30
0.0471
 70
192
 0
VERTEX
 8
CYLINDER_3
 10
-0.007
 20
0
 30
0.0449
 70
192
 0
VERTEX
 8
CYLINDER_3
 10
-0.0091
 20
0
 30
0.0417
 70
192
 0
VERTEX
 8
CYLINDER_3
 10
-0.0099
 20
0
 30
0.0379
 70
192
 0
VERTEX
 8
CYLINDER_3
 10
-0.0091
 20
0
 30
0.0342
 70
192
 0
VERTEX
 8
CYLINDER_3
 10
-0.007
 20
0
 30
0.0309
 70
192
 0
VERTEX
 8
CYLINDER_3
 10
-0.0038
 20
0
 30
0.0288
 70
192
 0
VERTEX
 8
CYLINDER_3
 10
0
 20
0
 30
0.0281
 70
192
 0
VERTEX
 8
CYLINDER_3
 10
0.0038
 20
0
 30
0.0288
 70
192
 0
VERTEX
 8
CYLINDER_3
 10
0.007
 20
0
 30
0.0309
 70
192
 0
VERTEX
 8
CYLINDER_3
 10
0.0091
 20
0
 30
0.0342
 70
192
 0
VERTEX
 8
CYLINDER_3
 10
0.0099
 20
-0.004
 30
0.0379
 70
192
 0
VERTEX
 8
CYLINDER_3
 10
0.0091
 20
-0.004
 30
0.0417
 70
192
 0
VERTEX
 8
CYLINDER_3
 10
0.007
 20
-0.004
 30
0.0449
 70
192
 0
VERTEX
 8
CYLINDER_3
 10
0.0038
 20
-0.004
 30
0.0471
 70
192
 0
VERTEX
 8
CYLINDER_3
 10
0
 20
-0.004
 30
0.0478
 70
192
 0
VERTEX
 8
CYLINDER_3
 10
-0.0038
 20
-0.004
 30
0.0471
 70
192
 0
VERTEX
 8
CYLINDER_3
 10
-0.007
 20
-0.004
 30
0.0449
 70
192
 0
VERTEX
 8
CYLINDER_3
 10
-0.0091
 20
-0.004
 30
0.0417
 70
192
 0
VERTEX
 8
CYLINDER_3
 10
-0.0099
 20
-0.004
 30
0.0379
 70
192
 0
VERTEX
 8
CYLINDER_3
 10
-0.0091
 20
-0.004
 30
0.0342
 70
192
 0
VERTEX
 8
CYLINDER_3
 10
-0.007
 20
-0.004
 30
0.0309
 70
192
 0
VERTEX
 8
CYLINDER_3
 10
-0.0038
 20
-0.004
 30
0.0288
 70
192
 0
VERTEX
 8
CYLINDER_3
 10
0
 20
-0.004
 30
0.0281
 70
192
 0
VERTEX
 8
CYLINDER_3
 10
0.0038
 20
-0.004
 30
0.0288
 70
192
 0
VERTEX
 8
CYLINDER_3
 10
0.007
 20
-0.004
 30
0.0309
 70
192
 0
VERTEX
 8
CYLINDER_3
 10
0.0091
 20
-0.004
 30
0.0342
 70
192
 0
VERTEX
 8
CYLINDER_3
 10
0.0099
 20
0.004
 30
0.0379
 70
192
 0
VERTEX
 8
CYLINDER_3
 10
0.0091
 20
0.004
 30
0.0417
 70
192
 0
VERTEX
 8
CYLINDER_3
 10
0.007
 20
0.004
 30
0.0449
 70
192
 0
VERTEX
 8
CYLINDER_3
 10
0.0038
 20
0.004
 30
0.0471
 70
192
 0
VERTEX
 8
CYLINDER_3
 10
0
 20
0.004
 30
0.0478
 70
192
 0
VERTEX
 8
CYLINDER_3
 10
-0.0038
 20
0.004
 30
0.0471
 70
192
 0
VERTEX
 8
CYLINDER_3
 10
-0.007
 20
0.004
 30
0.0449
 70
192
 0
VERTEX
 8
CYLINDER_3
 10
-0.0091
 20
0.004
 30
0.0417
 70
192
 0
VERTEX
 8
CYLINDER_3
 10
-0.0099
 20
0.004
 30
0.0379
 70
192
 0
VERTEX
 8
CYLINDER_3
 10
-0.0091
 20
0.004
 30
0.0342
 70
192
 0
VERTEX
 8
CYLINDER_3
 10
-0.007
 20
0.004
 30
0.0309
 70
192
 0
VERTEX
 8
CYLINDER_3
 10
-0.0038
 20
0.004
 30
0.0288
 70
192
 0
VERTEX
 8
CYLINDER_3
 10
0
 20
0.004
 30
0.0281
 70
192
 0
VERTEX
 8
CYLINDER_3
 10
0.0038
 20
0.004
 30
0.0288
 70
192
 0
VERTEX
 8
CYLINDER_3
 10
0.007
 20
0.004
 30
0.0309
 70
192
 0
VERTEX
 8
CYLINDER_3
 10
0.0091
 20
0.004
 30
0.0342
 70
192
 0
VERTEX
 8
CYLINDER_3
 10
0
 20
0
 30
0
 70
128
 71
1
 72
33
 73
34
 74
2
 0
VERTEX
 8
CYLINDER_3
 10
0
 20
0
 30
0
 70
128
 71
2
 72
18
 73
17
 74
1
 0
VERTEX
 8
CYLINDER_3
 10
0
 20
0
 30
0
 70
128
 71
2
 72
34
 73
35
 74
3
 0
VERTEX
 8
CYLINDER_3
 10
0
 20
0
 30
0
 70
128
 71
3
 72
19
 73
18
 74
2
 0
VERTEX
 8
CYLINDER_3
 10
0
 20
0
 30
0
 70
128
 71
3
 72
35
 73
36
 74
4
 0
VERTEX
 8
CYLINDER_3
 10
0
 20
0
 30
0
 70
128
 71
4
 72
20
 73
19
 74
3
 0
VERTEX
 8
CYLINDER_3
 10
0
 20
0
 30
0
 70
128
 71
4
 72
36
 73
37
 74
5
 0
VERTEX
 8
CYLINDER_3
 10
0
 20
0
 30
0
 70
128
 71
5
 72
21
 73
20
 74
4
 0
VERTEX
 8
CYLINDER_3
 10
0
 20
0
 30
0
 70
128
 71
5
 72
37
 73
38
 74
6
 0
VERTEX
 8
CYLINDER_3
 10
0
 20
0
 30
0
 70
128
 71
6
 72
22
 73
21
 74
5
 0
VERTEX
 8
CYLINDER_3
 10
0
 20
0
 30
0
 70
128
 71
6
 72
38
 73
39
 74
7
 0
VERTEX
 8
CYLINDER_3
 10
0
 20
0
 30
0
 70
128
 71
7
 72
23
 73
22
 74
6
 0
VERTEX
 8
CYLINDER_3
 10
0
 20
0
 30
0
 70
128
 71
7
 72
39
 73
40
 74
8
 0
VERTEX
 8
CYLINDER_3
 10
0
 20
0
 30
0
 70
128
 71
8
 72
24
 73
23
 74
7
 0
VERTEX
 8
CYLINDER_3
 10
0
 20
0
 30
0
 70
128
 71
8
 72
40
 73
41
 74
9
 0
VERTEX
 8
CYLINDER_3
 10
0
 20
0
 30
0
 70
128
 71
9
 72
25
 73
24
 74
8
 0
VERTEX
 8
CYLINDER_3
 10
0
 20
0
 30
0
 70
128
 71
9
 72
41
 73
42
 74
10
 0
VERTEX
 8
CYLINDER_3
 10
0
 20
0
 30
0
 70
128
 71
10
 72
26
 73
25
 74
9
 0
VERTEX
 8
CYLINDER_3
 10
0
 20
0
 30
0
 70
128
 71
10
 72
42
 73
43
 74
11
 0
VERTEX
 8
CYLINDER_3
 10
0
 20
0
 30
0
 70
128
 71
11
 72
27
 73
26
 74
10
 0
VERTEX
 8
CYLINDER_3
 10
0
 20
0
 30
0
 70
128
 71
11
 72
43
 73
44
 74
12
 0
VERTEX
 8
CYLINDER_3
 10
0
 20
0
 30
0
 70
128
 71
12
 72
28
 73
27
 74
11
 0
VERTEX
 8
CYLINDER_3
 10
0
 20
0
 30
0
 70
128
 71
12
 72
44
 73
45
 74
13
 0
VERTEX
 8
CYLINDER_3
 10
0
 20
0
 30
0
 70
128
 71
13
 72
29
 73
28
 74
12
 0
VERTEX
 8
CYLINDER_3
 10
0
 20
0
 30
0
 70
128
 71
13
 72
45
 73
46
 74
14
 0
VERTEX
 8
CYLINDER_3
 10
0
 20
0
 30
0
 70
128
 71
14
 72
30
 73
29
 74
13
 0
VERTEX
 8
CYLINDER_3
 10
0
 20
0
 30
0
 70
128
 71
14
 72
46
 73
47
 74
15
 0
VERTEX
 8
CYLINDER_3
 10
0
 20
0
 30
0
 70
128
 71
15
 72
31
 73
30
 74
14
 0
VERTEX
 8
CYLINDER_3
 10
0
 20
0
 30
0
 70
128
 71
15
 72
47
 73
48
 74
16
 0
VERTEX
 8
CYLINDER_3
 10
0
 20
0
 30
0
 70
128
 71
16
 72
32
 73
31
 74
15
 0
VERTEX
 8
CYLINDER_3
 10
0
 20
0
 30
0
 70
128
 71
16
 72
48
 73
33
 74
1
 0
VERTEX
 8
CYLINDER_3
 10
0
 20
0
 30
0
 70
128
 71
1
 72
17
 73
32
 74
16
 0
SEQEND
 0
POLYLINE
 8
CUBE_2
 66
1
 10
0.0
 20
0.0
 30
0.0
 70
64
 71
8
 72
4
 0
VERTEX
 8
CUBE_2
 10
-0.0109
 20
-0.004
 30
0.0927
 70
192
 0
VERTEX
 8
CUBE_2
 10
-0.0109
 20
-0.004
 30
0.0827
 70
192
 0
VERTEX
 8
CUBE_2
 10
-0.0309
 20
-0.004
 30
0.0927
 70
192
 0
VERTEX
 8
CUBE_2
 10
-0.0309
 20
-0.004
 30
0.0827
 70
192
 0
VERTEX
 8
CUBE_2
 10
-0.0109
 20
0.004
 30
0.0927
 70
192
 0
VERTEX
 8
CUBE_2
 10
-0.0109
 20
0.004
 30
0.0827
 70
192
 0
VERTEX
 8
CUBE_2
 10
-0.0309
 20
0.004
 30
0.0927
 70
192
 0
VERTEX
 8
CUBE_2
 10
-0.0309
 20
0.004
 30
0.0827
 70
192
 0
VERTEX
 8
CUBE_2
 10
0
 20
0
 30
0
 70
128
 71
2
 72
6
 73
5
 74
1
 0
VERTEX
 8
CUBE_2
 10
0
 20
0
 30
0
 70
128
 71
8
 72
4
 73
3
 74
7
 0
VERTEX
 8
CUBE_2
 10
0
 20
0
 30
0
 70
128
 71
7
 72
3
 73
1
 74
5
 0
VERTEX
 8
CUBE_2
 10
0
 20
0
 30
0
 70
128
 71
6
 72
2
 73
4
 74
8
 0
SEQEND
 0
POLYLINE
 8
CUBE_1_1
 66
1
 10
0.0
 20
0.0
 30
0.0
 70
64
 71
8
 72
4
 0
VERTEX
 8
CUBE_1_1
 10
0.0309
 20
-0.004
 30
0.0929
 70
192
 0
VERTEX
 8
CUBE_1_1
 10
0.0309
 20
-0.004
 30
0.0829
 70
192
 0
VERTEX
 8
CUBE_1_1
 10
0.0109
 20
-0.004
 30
0.0929
 70
192
 0
VERTEX
 8
CUBE_1_1
 10
0.0109
 20
-0.004
 30
0.0829
 70
192
 0
VERTEX
 8
CUBE_1_1
 10
0.0309
 20
0.004
 30
0.0929
 70
192
 0
VERTEX
 8
CUBE_1_1
 10
0.0309
 20
0.004
 30
0.0829
 70
192
 0
VERTEX
 8
CUBE_1_1
 10
0.0109
 20
0.004
 30
0.0929
 70
192
 0
VERTEX
 8
CUBE_1_1
 10
0.0109
 20
0.004
 30
0.0829
 70
192
 0
VERTEX
 8
CUBE_1_1
 10
0
 20
0
 30
0
 70
128
 71
2
 72
6
 73
5
 74
1
 0
VERTEX
 8
CUBE_1_1
 10
0
 20
0
 30
0
 70
128
 71
8
 72
4
 73
3
 74
7
 0
VERTEX
 8
CUBE_1_1
 10
0
 20
0
 30
0
 70
128
 71
7
 72
3
 73
1
 74
5
 0
VERTEX
 8
CUBE_1_1
 10
0
 20
0
 30
0
 70
128
 71
6
 72
2
 73
4
 74
8
 0
SEQEND
 0
POLYLINE
 8
CYLINDER_1
 66
1
 10
0.0
 20
0.0
 30
0.0
 70
64
 71
48
 72
32
 0
VERTEX
 8
CYLINDER_1
 10
-0.042
 20
0
 30
0.0707
 70
192
 0
VERTEX
 8
CYLINDER_1
 10
-0.0426
 20
0
 30
0.0738
 70
192
 0
VERTEX
 8
CYLINDER_1
 10
-0.0443
 20
0
 30
0.0764
 70
192
 0
VERTEX
 8
CYLINDER_1
 10
-0.0469
 20
0
 30
0.0781
 70
192
 0
VERTEX
 8
CYLINDER_1
 10
-0.05
 20
0
 30
0.0787
 70
192
 0
VERTEX
 8
CYLINDER_1
 10
-0.0531
 20
0
 30
0.0781
 70
192
 0
VERTEX
 8
CYLINDER_1
 10
-0.0557
 20
0
 30
0.0764
 70
192
 0
VERTEX
 8
CYLINDER_1
 10
-0.0574
 20
0
 30
0.0738
 70
192
 0
VERTEX
 8
CYLINDER_1
 10
-0.058
 20
0
 30
0.0707
 70
192
 0
VERTEX
 8
CYLINDER_1
 10
-0.0574
 20
0
 30
0.0676
 70
192
 0
VERTEX
 8
CYLINDER_1
 10
-0.0557
 20
0
 30
0.065
 70
192
 0
VERTEX
 8
CYLINDER_1
 10
-0.0531
 20
0
 30
0.0633
 70
192
 0
VERTEX
 8
CYLINDER_1
 10
-0.05
 20
0
 30
0.0627
 70
192
 0
VERTEX
 8
CYLINDER_1
 10
-0.0469
 20
0
 30
0.0633
 70
192
 0
VERTEX
 8
CYLINDER_1
 10
-0.0443
 20
0
 30
0.065
 70
192
 0
VERTEX
 8
CYLINDER_1
 10
-0.0426
 20
0
 30
0.0676
 70
192
 0
VERTEX
 8
CYLINDER_1
 10
-0.042
 20
-0.004
 30
0.0707
 70
192
 0
VERTEX
 8
CYLINDER_1
 10
-0.0426
 20
-0.004
 30
0.0738
 70
192
 0
VERTEX
 8
CYLINDER_1
 10
-0.0443
 20
-0.004
 30
0.0764
 70
192
 0
VERTEX
 8
CYLINDER_1
 10
-0.0469
 20
-0.004
 30
0.0781
 70
192
 0
VERTEX
 8
CYLINDER_1
 10
-0.05
 20
-0.004
 30
0.0787
 70
192
 0
VERTEX
 8
CYLINDER_1
 10
-0.0531
 20
-0.004
 30
0.0781
 70
192
 0
VERTEX
 8
CYLINDER_1
 10
-0.0557
 20
-0.004
 30
0.0764
 70
192
 0
VERTEX
 8
CYLINDER_1
 10
-0.0574
 20
-0.004
 30
0.0738
 70
192
 0
VERTEX
 8
CYLINDER_1
 10
-0.058
 20
-0.004
 30
0.0707
 70
192
 0
VERTEX
 8
CYLINDER_1
 10
-0.0574
 20
-0.004
 30
0.0676
 70
192
 0
VERTEX
 8
CYLINDER_1
 10
-0.0557
 20
-0.004
 30
0.065
 70
192
 0
VERTEX
 8
CYLINDER_1
 10
-0.0531
 20
-0.004
 30
0.0633
 70
192
 0
VERTEX
 8
CYLINDER_1
 10
-0.05
 20
-0.004
 30
0.0627
 70
192
 0
VERTEX
 8
CYLINDER_1
 10
-0.0469
 20
-0.004
 30
0.0633
 70
192
 0
VERTEX
 8
CYLINDER_1
 10
-0.0443
 20
-0.004
 30
0.065
 70
192
 0
VERTEX
 8
CYLINDER_1
 10
-0.0426
 20
-0.004
 30
0.0676
 70
192
 0
VERTEX
 8
CYLINDER_1
 10
-0.042
 20
0.004
 30
0.0707
 70
192
 0
VERTEX
 8
CYLINDER_1
 10
-0.0426
 20
0.004
 30
0.0738
 70
192
 0
VERTEX
 8
CYLINDER_1
 10
-0.0443
 20
0.004
 30
0.0764
 70
192
 0
VERTEX
 8
CYLINDER_1
 10
-0.0469
 20
0.004
 30
0.0781
 70
192
 0
VERTEX
 8
CYLINDER_1
 10
-0.05
 20
0.004
 30
0.0787
 70
192
 0
VERTEX
 8
CYLINDER_1
 10
-0.0531
 20
0.004
 30
0.0781
 70
192
 0
VERTEX
 8
CYLINDER_1
 10
-0.0557
 20
0.004
 30
0.0764
 70
192
 0
VERTEX
 8
CYLINDER_1
 10
-0.0574
 20
0.004
 30
0.0738
 70
192
 0
VERTEX
 8
CYLINDER_1
 10
-0.058
 20
0.004
 30
0.0707
 70
192
 0
VERTEX
 8
CYLINDER_1
 10
-0.0574
 20
0.004
 30
0.0676
 70
192
 0
VERTEX
 8
CYLINDER_1
 10
-0.0557
 20
0.004
 30
0.065
 70
192
 0
VERTEX
 8
CYLINDER_1
 10
-0.0531
 20
0.004
 30
0.0633
 70
192
 0
VERTEX
 8
CYLINDER_1
 10
-0.05
 20
0.004
 30
0.0627
 70
192
 0
VERTEX
 8
CYLINDER_1
 10
-0.0469
 20
0.004
 30
0.0633
 70
192
 0
VERTEX
 8
CYLINDER_1
 10
-0.0443
 20
0.004
 30
0.065
 70
192
 0
VERTEX
 8
CYLINDER_1
 10
-0.0426
 20
0.004
 30
0.0676
 70
192
 0
VERTEX
 8
CYLINDER_1
 10
0
 20
0
 30
0
 70
128
 71
1
 72
33
 73
34
 74
2
 0
VERTEX
 8
CYLINDER_1
 10
0
 20
0
 30
0
 70
128
 71
2
 72
18
 73
17
 74
1
 0
VERTEX
 8
CYLINDER_1
 10
0
 20
0
 30
0
 70
128
 71
2
 72
34
 73
35
 74
3
 0
VERTEX
 8
CYLINDER_1
 10
0
 20
0
 30
0
 70
128
 71
3
 72
19
 73
18
 74
2
 0
VERTEX
 8
CYLINDER_1
 10
0
 20
0
 30
0
 70
128
 71
3
 72
35
 73
36
 74
4
 0
VERTEX
 8
CYLINDER_1
 10
0
 20
0
 30
0
 70
128
 71
4
 72
20
 73
19
 74
3
 0
VERTEX
 8
CYLINDER_1
 10
0
 20
0
 30
0
 70
128
 71
4
 72
36
 73
37
 74
5
 0
VERTEX
 8
CYLINDER_1
 10
0
 20
0
 30
0
 70
128
 71
5
 72
21
 73
20
 74
4
 0
VERTEX
 8
CYLINDER_1
 10
0
 20
0
 30
0
 70
128
 71
5
 72
37
 73
38
 74
6
 0
VERTEX
 8
CYLINDER_1
 10
0
 20
0
 30
0
 70
128
 71
6
 72
22
 73
21
 74
5
 0
VERTEX
 8
CYLINDER_1
 10
0
 20
0
 30
0
 70
128
 71
6
 72
38
 73
39
 74
7
 0
VERTEX
 8
CYLINDER_1
 10
0
 20
0
 30
0
 70
128
 71
7
 72
23
 73
22
 74
6
 0
VERTEX
 8
CYLINDER_1
 10
0
 20
0
 30
0
 70
128
 71
7
 72
39
 73
40
 74
8
 0
VERTEX
 8
CYLINDER_1
 10
0
 20
0
 30
0
 70
128
 71
8
 72
24
 73
23
 74
7
 0
VERTEX
 8
CYLINDER_1
 10
0
 20
0
 30
0
 70
128
 71
8
 72
40
 73
41
 74
9
 0
VERTEX
 8
CYLINDER_1
 10
0
 20
0
 30
0
 70
128
 71
9
 72
25
 73
24
 74
8
 0
VERTEX
 8
CYLINDER_1
 10
0
 20
0
 30
0
 70
128
 71
9
 72
41
 73
42
 74
10
 0
VERTEX
 8
CYLINDER_1
 10
0
 20
0
 30
0
 70
128
 71
10
 72
26
 73
25
 74
9
 0
VERTEX
 8
CYLINDER_1
 10
0
 20
0
 30
0
 70
128
 71
10
 72
42
 73
43
 74
11
 0
VERTEX
 8
CYLINDER_1
 10
0
 20
0
 30
0
 70
128
 71
11
 72
27
 73
26
 74
10
 0
VERTEX
 8
CYLINDER_1
 10
0
 20
0
 30
0
 70
128
 71
11
 72
43
 73
44
 74
12
 0
VERTEX
 8
CYLINDER_1
 10
0
 20
0
 30
0
 70
128
 71
12
 72
28
 73
27
 74
11
 0
VERTEX
 8
CYLINDER_1
 10
0
 20
0
 30
0
 70
128
 71
12
 72
44
 73
45
 74
13
 0
VERTEX
 8
CYLINDER_1
 10
0
 20
0
 30
0
 70
128
 71
13
 72
29
 73
28
 74
12
 0
VERTEX
 8
CYLINDER_1
 10
0
 20
0
 30
0
 70
128
 71
13
 72
45
 73
46
 74
14
 0
VERTEX
 8
CYLINDER_1
 10
0
 20
0
 30
0
 70
128
 71
14
 72
30
 73
29
 74
13
 0
VERTEX
 8
CYLINDER_1
 10
0
 20
0
 30
0
 70
128
 71
14
 72
46
 73
47
 74
15
 0
VERTEX
 8
CYLINDER_1
 10
0
 20
0
 30
0
 70
128
 71
15
 72
31
 73
30
 74
14
 0
VERTEX
 8
CYLINDER_1
 10
0
 20
0
 30
0
 70
128
 71
15
 72
47
 73
48
 74
16
 0
VERTEX
 8
CYLINDER_1
 10
0
 20
0
 30
0
 70
128
 71
16
 72
32
 73
31
 74
15
 0
VERTEX
 8
CYLINDER_1
 10
0
 20
0
 30
0
 70
128
 71
16
 72
48
 73
33
 74
1
 0
VERTEX
 8
CYLINDER_1
 10
0
 20
0
 30
0
 70
128
 71
1
 72
17
 73
32
 74
16
 0
SEQEND
 0
POLYLINE
 8
CYLINDER
 66
1
 10
0.0
 20
0.0
 30
0.0
 70
64
 71
48
 72
32
 0
VERTEX
 8
CYLINDER
 10
0.058
 20
0
 30
0.0707
 70
192
 0
VERTEX
 8
CYLINDER
 10
0.0574
 20
0
 30
0.0738
 70
192
 0
VERTEX
 8
CYLINDER
 10
0.0557
 20
0
 30
0.0764
 70
192
 0
VERTEX
 8
CYLINDER
 10
0.0531
 20
0
 30
0.0781
 70
192
 0
VERTEX
 8
CYLINDER
 10
0.05
 20
0
 30
0.0787
 70
192
 0
VERTEX
 8
CYLINDER
 10
0.0469
 20
0
 30
0.0781
 70
192
 0
VERTEX
 8
CYLINDER
 10
0.0443
 20
0
 30
0.0764
 70
192
 0
VERTEX
 8
CYLINDER
 10
0.0426
 20
0
 30
0.0738
 70
192
 0
VERTEX
 8
CYLINDER
 10
0.042
 20
0
 30
0.0707
 70
192
 0
VERTEX
 8
CYLINDER
 10
0.0426
 20
0
 30
0.0676
 70
192
 0
VERTEX
 8
CYLINDER
 10
0.0443
 20
0
 30
0.065
 70
192
 0
VERTEX
 8
CYLINDER
 10
0.0469
 20
0
 30
0.0633
 70
192
 0
VERTEX
 8
CYLINDER
 10
0.05
 20
0
 30
0.0627
 70
192
 0
VERTEX
 8
CYLINDER
 10
0.0531
 20
0
 30
0.0633
 70
192
 0
VERTEX
 8
CYLINDER
 10
0.0557
 20
0
 30
0.065
 70
192
 0
VERTEX
 8
CYLINDER
 10
0.0574
 20
0
 30
0.0676
 70
192
 0
VERTEX
 8
CYLINDER
 10
0.058
 20
-0.004
 30
0.0707
 70
192
 0
VERTEX
 8
CYLINDER
 10
0.0574
 20
-0.004
 30
0.0738
 70
192
 0
VERTEX
 8
CYLINDER
 10
0.0557
 20
-0.004
 30
0.0764
 70
192
 0
VERTEX
 8
CYLINDER
 10
0.0531
 20
-0.004
 30
0.0781
 70
192
 0
VERTEX
 8
CYLINDER
 10
0.05
 20
-0.004
 30
0.0787
 70
192
 0
VERTEX
 8
CYLINDER
 10
0.0469
 20
-0.004
 30
0.0781
 70
192
 0
VERTEX
 8
CYLINDER
 10
0.0443
 20
-0.004
 30
0.0764
 70
192
 0
VERTEX
 8
CYLINDER
 10
0.0426
 20
-0.004
 30
0.0738
 70
192
 0
VERTEX
 8
CYLINDER
 10
0.042
 20
-0.004
 30
0.0707
 70
192
 0
VERTEX
 8
CYLINDER
 10
0.0426
 20
-0.004
 30
0.0676
 70
192
 0
VERTEX
 8
CYLINDER
 10
0.0443
 20
-0.004
 30
0.065
 70
192
 0
VERTEX
 8
CYLINDER
 10
0.0469
 20
-0.004
 30
0.0633
 70
192
 0
VERTEX
 8
CYLINDER
 10
0.05
 20
-0.004
 30
0.0627
 70
192
 0
VERTEX
 8
CYLINDER
 10
0.0531
 20
-0.004
 30
0.0633
 70
192
 0
VERTEX
 8
CYLINDER
 10
0.0557
 20
-0.004
 30
0.065
 70
192
 0
VERTEX
 8
CYLINDER
 10
0.0574
 20
-0.004
 30
0.0676
 70
192
 0
VERTEX
 8
CYLINDER
 10
0.058
 20
0.004
 30
0.0707
 70
192
 0
VERTEX
 8
CYLINDER
 10
0.0574
 20
0.004
 30
0.0738
 70
192
 0
VERTEX
 8
CYLINDER
 10
0.0557
 20
0.004
 30
0.0764
 70
192
 0
VERTEX
 8
CYLINDER
 10
0.0531
 20
0.004
 30
0.0781
 70
192
 0
VERTEX
 8
CYLINDER
 10
0.05
 20
0.004
 30
0.0787
 70
192
 0
VERTEX
 8
CYLINDER
 10
0.0469
 20
0.004
 30
0.0781
 70
192
 0
VERTEX
 8
CYLINDER
 10
0.0443
 20
0.004
 30
0.0764
 70
192
 0
VERTEX
 8
CYLINDER
 10
0.0426
 20
0.004
 30
0.0738
 70
192
 0
VERTEX
 8
CYLINDER
 10
0.042
 20
0.004
 30
0.0707
 70
192
 0
VERTEX
 8
CYLINDER
 10
0.0426
 20
0.004
 30
0.0676
 70
192
 0
VERTEX
 8
CYLINDER
 10
0.0443
 20
0.004
 30
0.065
 70
192
 0
VERTEX
 8
CYLINDER
 10
0.0469
 20
0.004
 30
0.0633
 70
192
 0
VERTEX
 8
CYLINDER
 10
0.05
 20
0.004
 30
0.0627
 70
192
 0
VERTEX
 8
CYLINDER
 10
0.0531
 20
0.004
 30
0.0633
 70
192
 0
VERTEX
 8
CYLINDER
 10
0.0557
 20
0.004
 30
0.065
 70
192
 0
VERTEX
 8
CYLINDER
 10
0.0574
 20
0.004
 30
0.0676
 70
192
 0
VERTEX
 8
CYLINDER
 10
0
 20
0
 30
0
 70
128
 71
1
 72
33
 73
34
 74
2
 0
VERTEX
 8
CYLINDER
 10
0
 20
0
 30
0
 70
128
 71
2
 72
18
 73
17
 74
1
 0
VERTEX
 8
CYLINDER
 10
0
 20
0
 30
0
 70
128
 71
2
 72
34
 73
35
 74
3
 0
VERTEX
 8
CYLINDER
 10
0
 20
0
 30
0
 70
128
 71
3
 72
19
 73
18
 74
2
 0
VERTEX
 8
CYLINDER
 10
0
 20
0
 30
0
 70
128
 71
3
 72
35
 73
36
 74
4
 0
VERTEX
 8
CYLINDER
 10
0
 20
0
 30
0
 70
128
 71
4
 72
20
 73
19
 74
3
 0
VERTEX
 8
CYLINDER
 10
0
 20
0
 30
0
 70
128
 71
4
 72
36
 73
37
 74
5
 0
VERTEX
 8
CYLINDER
 10
0
 20
0
 30
0
 70
128
 71
5
 72
21
 73
20
 74
4
 0
VERTEX
 8
CYLINDER
 10
0
 20
0
 30
0
 70
128
 71
5
 72
37
 73
38
 74
6
 0
VERTEX
 8
CYLINDER
 10
0
 20
0
 30
0
 70
128
 71
6
 72
22
 73
21
 74
5
 0
VERTEX
 8
CYLINDER
 10
0
 20
0
 30
0
 70
128
 71
6
 72
38
 73
39
 74
7
 0
VERTEX
 8
CYLINDER
 10
0
 20
0
 30
0
 70
128
 71
7
 72
23
 73
22
 74
6
 0
VERTEX
 8
CYLINDER
 10
0
 20
0
 30
0
 70
128
 71
7
 72
39
 73
40
 74
8
 0
VERTEX
 8
CYLINDER
 10
0
 20
0
 30
0
 70
128
 71
8
 72
24
 73
23
 74
7
 0
VERTEX
 8
CYLINDER
 10
0
 20
0
 30
0
 70
128
 71
8
 72
40
 73
41
 74
9
 0
VERTEX
 8
CYLINDER
 10
0
 20
0
 30
0
 70
128
 71
9
 72
25
 73
24
 74
8
 0
VERTEX
 8
CYLINDER
 10
0
 20
0
 30
0
 70
128
 71
9
 72
41
 73
42
 74
10
 0
VERTEX
 8
CYLINDER
 10
0
 20
0
 30
0
 70
128
 71
10
 72
26
 73
25
 74
9
 0
VERTEX
 8
CYLINDER
 10
0
 20
0
 30
0
 70
128
 71
10
 72
42
 73
43
 74
11
 0
VERTEX
 8
CYLINDER
 10
0
 20
0
 30
0
 70
128
 71
11
 72
27
 73
26
 74
10
 0
VERTEX
 8
CYLINDER
 10
0
 20
0
 30
0
 70
128
 71
11
 72
43
 73
44
 74
12
 0
VERTEX
 8
CYLINDER
 10
0
 20
0
 30
0
 70
128
 71
12
 72
28
 73
27
 74
11
 0
VERTEX
 8
CYLINDER
 10
0
 20
0
 30
0
 70
128
 71
12
 72
44
 73
45
 74
13
 0
VERTEX
 8
CYLINDER
 10
0
 20
0
 30
0
 70
128
 71
13
 72
29
 73
28
 74
12
 0
VERTEX
 8
CYLINDER
 10
0
 20
0
 30
0
 70
128
 71
13
 72
45
 73
46
 74
14
 0
VERTEX
 8
CYLINDER
 10
0
 20
0
 30
0
 70
128
 71
14
 72
30
 73
29
 74
13
 0
VERTEX
 8
CYLINDER
 10
0
 20
0
 30
0
 70
128
 71
14
 72
46
 73
47
 74
15
 0
VERTEX
 8
CYLINDER
 10
0
 20
0
 30
0
 70
128
 71
15
 72
31
 73
30
 74
14
 0
VERTEX
 8
CYLINDER
 10
0
 20
0
 30
0
 70
128
 71
15
 72
47
 73
48
 74
16
 0
VERTEX
 8
CYLINDER
 10
0
 20
0
 30
0
 70
128
 71
16
 72
32
 73
31
 74
15
 0
VERTEX
 8
CYLINDER
 10
0
 20
0
 30
0
 70
128
 71
16
 72
48
 73
33
 74
1
 0
VERTEX
 8
CYLINDER
 10
0
 20
0
 30
0
 70
128
 71
1
 72
17
 73
32
 74
16
 0
SEQEND
 0
POLYLINE
 8
CYLINDER_2
 66
1
 10
0.0
 20
0.0
 30
0.0
 70
64
 71
48
 72
32
 0
VERTEX
 8
CYLINDER_2
 10
0.005
 20
0
 30
0.0879
 70
192
 0
VERTEX
 8
CYLINDER_2
 10
0.0046
 20
0
 30
0.0899
 70
192
 0
VERTEX
 8
CYLINDER_2
 10
0.0035
 20
0
 30
0.0915
 70
192
 0
VERTEX
 8
CYLINDER_2
 10
0.0019
 20
0
 30
0.0926
 70
192
 0
VERTEX
 8
CYLINDER_2
 10
0
 20
0
 30
0.0929
 70
192
 0
VERTEX
 8
CYLINDER_2
 10
-0.0019
 20
0
 30
0.0926
 70
192
 0
VERTEX
 8
CYLINDER_2
 10
-0.0035
 20
0
 30
0.0915
 70
192
 0
VERTEX
 8
CYLINDER_2
 10
-0.0046
 20
0
 30
0.0899
 70
192
 0
VERTEX
 8
CYLINDER_2
 10
-0.005
 20
0
 30
0.0879
 70
192
 0
VERTEX
 8
CYLINDER_2
 10
-0.0046
 20
0
 30
0.086
 70
192
 0
VERTEX
 8
CYLINDER_2
 10
-0.0035
 20
0
 30
0.0844
 70
192
 0
VERTEX
 8
CYLINDER_2
 10
-0.0019
 20
0
 30
0.0833
 70
192
 0
VERTEX
 8
CYLINDER_2
 10
0
 20
0
 30
0.0829
 70
192
 0
VERTEX
 8
CYLINDER_2
 10
0.0019
 20
0
 30
0.0833
 70
192
 0
VERTEX
 8
CYLINDER_2
 10
0.0035
 20
0
 30
0.0844
 70
192
 0
VERTEX
 8
CYLINDER_2
 10
0.0046
 20
0
 30
0.086
 70
192
 0
VERTEX
 8
CYLINDER_2
 10
0.005
 20
-0.004
 30
0.0879
 70
192
 0
VERTEX
 8
CYLINDER_2
 10
0.0046
 20
-0.004
 30
0.0899
 70
192
 0
VERTEX
 8
CYLINDER_2
 10
0.0035
 20
-0.004
 30
0.0915
 70
192
 0
VERTEX
 8
CYLINDER_2
 10
0.0019
 20
-0.004
 30
0.0926
 70
192
 0
VERTEX
 8
CYLINDER_2
 10
0
 20
-0.004
 30
0.0929
 70
192
 0
VERTEX
 8
CYLINDER_2
 10
-0.0019
 20
-0.004
 30
0.0926
 70
192
 0
VERTEX
 8
CYLINDER_2
 10
-0.0035
 20
-0.004
 30
0.0915
 70
192
 0
VERTEX
 8
CYLINDER_2
 10
-0.0046
 20
-0.004
 30
0.0899
 70
192
 0
VERTEX
 8
CYLINDER_2
 10
-0.005
 20
-0.004
 30
0.0879
 70
192
 0
VERTEX
 8
CYLINDER_2
 10
-0.0046
 20
-0.004
 30
0.086
 70
192
 0
VERTEX
 8
CYLINDER_2
 10
-0.0035
 20
-0.004
 30
0.0844
 70
192
 0
VERTEX
 8
CYLINDER_2
 10
-0.0019
 20
-0.004
 30
0.0833
 70
192
 0
VERTEX
 8
CYLINDER_2
 10
0
 20
-0.004
 30
0.0829
 70
192
 0
VERTEX
 8
CYLINDER_2
 10
0.0019
 20
-0.004
 30
0.0833
 70
192
 0
VERTEX
 8
CYLINDER_2
 10
0.0035
 20
-0.004
 30
0.0844
 70
192
 0
VERTEX
 8
CYLINDER_2
 10
0.0046
 20
-0.004
 30
0.086
 70
192
 0
VERTEX
 8
CYLINDER_2
 10
0.005
 20
0.004
 30
0.0879
 70
192
 0
VERTEX
 8
CYLINDER_2
 10
0.0046
 20
0.004
 30
0.0899
 70
192
 0
VERTEX
 8
CYLINDER_2
 10
0.0035
 20
0.004
 30
0.0915
 70
192
 0
VERTEX
 8
CYLINDER_2
 10
0.0019
 20
0.004
 30
0.0926
 70
192
 0
VERTEX
 8
CYLINDER_2
 10
0
 20
0.004
 30
0.0929
 70
192
 0
VERTEX
 8
CYLINDER_2
 10
-0.0019
 20
0.004
 30
0.0926
 70
192
 0
VERTEX
 8
CYLINDER_2
 10
-0.0035
 20
0.004
 30
0.0915
 70
192
 0
VERTEX
 8
CYLINDER_2
 10
-0.0046
 20
0.004
 30
0.0899
 70
192
 0
VERTEX
 8
CYLINDER_2
 10
-0.005
 20
0.004
 30
0.0879
 70
192
 0
VERTEX
 8
CYLINDER_2
 10
-0.0046
 20
0.004
 30
0.086
 70
192
 0
VERTEX
 8
CYLINDER_2
 10
-0.0035
 20
0.004
 30
0.0844
 70
192
 0
VERTEX
 8
CYLINDER_2
 10
-0.0019
 20
0.004
 30
0.0833
 70
192
 0
VERTEX
 8
CYLINDER_2
 10
0
 20
0.004
 30
0.0829
 70
192
 0
VERTEX
 8
CYLINDER_2
 10
0.0019
 20
0.004
 30
0.0833
 70
192
 0
VERTEX
 8
CYLINDER_2
 10
0.0035
 20
0.004
 30
0.0844
 70
192
 0
VERTEX
 8
CYLINDER_2
 10
0.0046
 20
0.004
 30
0.086
 70
192
 0
VERTEX
 8
CYLINDER_2
 10
0
 20
0
 30
0
 70
128
 71
1
 72
33
 73
34
 74
2
 0
VERTEX
 8
CYLINDER_2
 10
0
 20
0
 30
0
 70
128
 71
2
 72
18
 73
17
 74
1
 0
VERTEX
 8
CYLINDER_2
 10
0
 20
0
 30
0
 70
128
 71
2
 72
34
 73
35
 74
3
 0
VERTEX
 8
CYLINDER_2
 10
0
 20
0
 30
0
 70
128
 71
3
 72
19
 73
18
 74
2
 0
VERTEX
 8
CYLINDER_2
 10
0
 20
0
 30
0
 70
128
 71
3
 72
35
 73
36
 74
4
 0
VERTEX
 8
CYLINDER_2
 10
0
 20
0
 30
0
 70
128
 71
4
 72
20
 73
19
 74
3
 0
VERTEX
 8
CYLINDER_2
 10
0
 20
0
 30
0
 70
128
 71
4
 72
36
 73
37
 74
5
 0
VERTEX
 8
CYLINDER_2
 10
0
 20
0
 30
0
 70
128
 71
5
 72
21
 73
20
 74
4
 0
VERTEX
 8
CYLINDER_2
 10
0
 20
0
 30
0
 70
128
 71
5
 72
37
 73
38
 74
6
 0
VERTEX
 8
CYLINDER_2
 10
0
 20
0
 30
0
 70
128
 71
6
 72
22
 73
21
 74
5
 0
VERTEX
 8
CYLINDER_2
 10
0
 20
0
 30
0
 70
128
 71
6
 72
38
 73
39
 74
7
 0
VERTEX
 8
CYLINDER_2
 10
0
 20
0
 30
0
 70
128
 71
7
 72
23
 73
22
 74
6
 0
VERTEX
 8
CYLINDER_2
 10
0
 20
0
 30
0
 70
128
 71
7
 72
39
 73
40
 74
8
 0
VERTEX
 8
CYLINDER_2
 10
0
 20
0
 30
0
 70
128
 71
8
 72
24
 73
23
 74
7
 0
VERTEX
 8
CYLINDER_2
 10
0
 20
0
 30
0
 70
128
 71
8
 72
40
 73
41
 74
9
 0
VERTEX
 8
CYLINDER_2
 10
0
 20
0
 30
0
 70
128
 71
9
 72
25
 73
24
 74
8
 0
VERTEX
 8
CYLINDER_2
 10
0
 20
0
 30
0
 70
128
 71
9
 72
41
 73
42
 74
10
 0
VERTEX
 8
CYLINDER_2
 10
0
 20
0
 30
0
 70
128
 71
10
 72
26
 73
25
 74
9
 0
VERTEX
 8
CYLINDER_2
 10
0
 20
0
 30
0
 70
128
 71
10
 72
42
 73
43
 74
11
 0
VERTEX
 8
CYLINDER_2
 10
0
 20
0
 30
0
 70
128
 71
11
 72
27
 73
26
 74
10
 0
VERTEX
 8
CYLINDER_2
 10
0
 20
0
 30
0
 70
128
 71
11
 72
43
 73
44
 74
12
 0
VERTEX
 8
CYLINDER_2
 10
0
 20
0
 30
0
 70
128
 71
12
 72
28
 73
27
 74
11
 0
VERTEX
 8
CYLINDER_2
 10
0
 20
0
 30
0
 70
128
 71
12
 72
44
 73
45
 74
13
 0
VERTEX
 8
CYLINDER_2
 10
0
 20
0
 30
0
 70
128
 71
13
 72
29
 73
28
 74
12
 0
VERTEX
 8
CYLINDER_2
 10
0
 20
0
 30
0
 70
128
 71
13
 72
45
 73
46
 74
14
 0
VERTEX
 8
CYLINDER_2
 10
0
 20
0
 30
0
 70
128
 71
14
 72
30
 73
29
 74
13
 0
VERTEX
 8
CYLINDER_2
 10
0
 20
0
 30
0
 70
128
 71
14
 72
46
 73
47
 74
15
 0
VERTEX
 8
CYLINDER_2
 10
0
 20
0
 30
0
 70
128
 71
15
 72
31
 73
30
 74
14
 0
VERTEX
 8
CYLINDER_2
 10
0
 20
0
 30
0
 70
128
 71
15
 72
47
 73
48
 74
16
 0
VERTEX
 8
CYLINDER_2
 10
0
 20
0
 30
0
 70
128
 71
16
 72
32
 73
31
 74
15
 0
VERTEX
 8
CYLINDER_2
 10
0
 20
0
 30
0
 70
128
 71
16
 72
48
 73
33
 74
1
 0
VERTEX
 8
CYLINDER_2
 10
0
 20
0
 30
0
 70
128
 71
1
 72
17
 73
32
 74
16
 0
SEQEND
 0
ENDSEC
 0
EOF
