 0
SECTION
 2
HEADER
 9
$ACADVER
 1
AC1009
 0
ENDSEC
 0
SECTION
 2
TABLES
 0
TABLE
 2
LTYPE
 70
1
 0
LTYPE
 2
CONTINUOUS
 70
64
 3
solid line
 72
65
 73
0
 40
0.0
 0
ENDTAB
 0
TABLE
 2
LAYER
 70
6
 0
LAYER
 2
0
 70
0
 62
7
 6
CONTINUOUS
 0
LAYER
 2
BOOLE_1
 70
64
 62
7
 6
CONTINUOUS
 0
LAYER
 2
CUBE_7
 70
64
 62
7
 6
CONTINUOUS
 0
LAYER
 2
CUBE_8
 70
64
 62
7
 6
CONTINUOUS
 0
LAYER
 2
CUBE_3
 70
64
 62
7
 6
CONTINUOUS
 0
LAYER
 2
CUBE_2
 70
64
 62
7
 6
CONTINUOUS
 0
LAYER
 2
CUBE_1
 70
64
 62
7
 6
CONTINUOUS
 0
ENDTAB
 0
ENDSEC
 0
SECTION
 2
BLOCKS
 0
ENDSEC
 0
SECTION
 2
ENTITIES
 0
POLYLINE
 8
CUBE_7
 66
1
 10
0.0
 20
0.0
 30
0.0
 70
64
 71
16
 72
12
 0
VERTEX
 8
CUBE_7
 10
-0.0609
 20
0.2042
 30
0.1633
 70
192
 0
VERTEX
 8
CUBE_7
 10
0.0781
 20
0.2042
 30
0.1633
 70
192
 0
VERTEX
 8
CUBE_7
 10
-0.0609
 20
0.2042
 30
0.0133
 70
192
 0
VERTEX
 8
CUBE_7
 10
0.0781
 20
0.2042
 30
0.0133
 70
192
 0
VERTEX
 8
CUBE_7
 10
-0.0609
 20
0.2122
 30
0.0133
 70
192
 0
VERTEX
 8
CUBE_7
 10
0.0781
 20
0.2122
 30
0.0133
 70
192
 0
VERTEX
 8
CUBE_7
 10
-0.0609
 20
0.2122
 30
0.1633
 70
192
 0
VERTEX
 8
CUBE_7
 10
0.0781
 20
0.2122
 30
0.1633
 70
192
 0
VERTEX
 8
CUBE_7
 10
0.0385
 20
0.2042
 30
0.023
 70
192
 0
VERTEX
 8
CUBE_7
 10
-0.0213
 20
0.2042
 30
0.023
 70
192
 0
VERTEX
 8
CUBE_7
 10
0.0385
 20
0.2042
 30
0.0562
 70
192
 0
VERTEX
 8
CUBE_7
 10
-0.0213
 20
0.2042
 30
0.0562
 70
192
 0
VERTEX
 8
CUBE_7
 10
0.0385
 20
0.2122
 30
0.023
 70
192
 0
VERTEX
 8
CUBE_7
 10
-0.0213
 20
0.2122
 30
0.023
 70
192
 0
VERTEX
 8
CUBE_7
 10
0.0385
 20
0.2122
 30
0.0562
 70
192
 0
VERTEX
 8
CUBE_7
 10
-0.0213
 20
0.2122
 30
0.0562
 70
192
 0
VERTEX
 8
CUBE_7
 10
0
 20
0
 30
0
 70
128
 71
11
 72
12
 73
1
 74
2
 0
VERTEX
 8
CUBE_7
 10
0
 20
0
 30
0
 70
128
 71
10
 72
9
 73
4
 74
3
 0
VERTEX
 8
CUBE_7
 10
0
 20
0
 30
0
 70
128
 71
12
 72
10
 73
3
 74
1
 0
VERTEX
 8
CUBE_7
 10
0
 20
0
 30
0
 70
128
 71
11
 72
2
 73
4
 74
9
 0
VERTEX
 8
CUBE_7
 10
0
 20
0
 30
0
 70
128
 71
7
 72
1
 73
3
 74
5
 0
VERTEX
 8
CUBE_7
 10
0
 20
0
 30
0
 70
128
 71
2
 72
8
 73
6
 74
4
 0
VERTEX
 8
CUBE_7
 10
0
 20
0
 30
0
 70
128
 71
7
 72
8
 73
2
 74
1
 0
VERTEX
 8
CUBE_7
 10
0
 20
0
 30
0
 70
128
 71
3
 72
4
 73
6
 74
5
 0
VERTEX
 8
CUBE_7
 10
0
 20
0
 30
0
 70
128
 71
16
 72
15
 73
8
 74
7
 0
VERTEX
 8
CUBE_7
 10
0
 20
0
 30
0
 70
128
 71
13
 72
14
 73
5
 74
6
 0
VERTEX
 8
CUBE_7
 10
0
 20
0
 30
0
 70
128
 71
15
 72
13
 73
6
 74
8
 0
VERTEX
 8
CUBE_7
 10
0
 20
0
 30
0
 70
128
 71
16
 72
7
 73
5
 74
14
 0
SEQEND
 0
POLYLINE
 8
CUBE_8
 66
1
 10
0.0
 20
0.0
 30
0.0
 70
64
 71
8
 72
4
 0
VERTEX
 8
CUBE_8
 10
0.0385
 20
0.2042
 30
0.023
 70
192
 0
VERTEX
 8
CUBE_8
 10
-0.0213
 20
0.2042
 30
0.023
 70
192
 0
VERTEX
 8
CUBE_8
 10
0.0385
 20
0.2042
 30
0.0562
 70
192
 0
VERTEX
 8
CUBE_8
 10
-0.0213
 20
0.2042
 30
0.0562
 70
192
 0
VERTEX
 8
CUBE_8
 10
0.0385
 20
0.2122
 30
0.023
 70
192
 0
VERTEX
 8
CUBE_8
 10
-0.0213
 20
0.2122
 30
0.023
 70
192
 0
VERTEX
 8
CUBE_8
 10
0.0385
 20
0.2122
 30
0.0562
 70
192
 0
VERTEX
 8
CUBE_8
 10
-0.0213
 20
0.2122
 30
0.0562
 70
192
 0
VERTEX
 8
CUBE_8
 10
0
 20
0
 30
0
 70
128
 71
2
 72
6
 73
5
 74
1
 0
VERTEX
 8
CUBE_8
 10
0
 20
0
 30
0
 70
128
 71
8
 72
4
 73
3
 74
7
 0
VERTEX
 8
CUBE_8
 10
0
 20
0
 30
0
 70
128
 71
7
 72
3
 73
1
 74
5
 0
VERTEX
 8
CUBE_8
 10
0
 20
0
 30
0
 70
128
 71
6
 72
2
 73
4
 74
8
 0
SEQEND
 0
POLYLINE
 8
CUBE_3
 66
1
 10
0.0
 20
0.0
 30
0.0
 70
64
 71
8
 72
6
 0
VERTEX
 8
CUBE_3
 10
0.0764
 20
0.2122
 30
0.1633
 70
192
 0
VERTEX
 8
CUBE_3
 10
0.0764
 20
0.043
 30
0.1633
 70
192
 0
VERTEX
 8
CUBE_3
 10
0.0764
 20
0.2122
 30
0.0133
 70
192
 0
VERTEX
 8
CUBE_3
 10
0.0764
 20
0.043
 30
0.0133
 70
192
 0
VERTEX
 8
CUBE_3
 10
0.0844
 20
0.2122
 30
0.0133
 70
192
 0
VERTEX
 8
CUBE_3
 10
0.0844
 20
0.043
 30
0.0133
 70
192
 0
VERTEX
 8
CUBE_3
 10
0.0844
 20
0.2122
 30
0.1633
 70
192
 0
VERTEX
 8
CUBE_3
 10
0.0844
 20
0.043
 30
0.1633
 70
192
 0
VERTEX
 8
CUBE_3
 10
0
 20
0
 30
0
 70
128
 71
1
 72
2
 73
4
 74
3
 0
VERTEX
 8
CUBE_3
 10
0
 20
0
 30
0
 70
128
 71
3
 72
4
 73
6
 74
5
 0
VERTEX
 8
CUBE_3
 10
0
 20
0
 30
0
 70
128
 71
5
 72
6
 73
8
 74
7
 0
VERTEX
 8
CUBE_3
 10
0
 20
0
 30
0
 70
128
 71
7
 72
8
 73
2
 74
1
 0
VERTEX
 8
CUBE_3
 10
0
 20
0
 30
0
 70
128
 71
2
 72
8
 73
6
 74
4
 0
VERTEX
 8
CUBE_3
 10
0
 20
0
 30
0
 70
128
 71
7
 72
1
 73
3
 74
5
 0
SEQEND
 0
POLYLINE
 8
CUBE_2
 66
1
 10
0.0
 20
0.0
 30
0.0
 70
64
 71
8
 72
6
 0
VERTEX
 8
CUBE_2
 10
0.0819
 20
0.2122
 30
0.1638
 70
192
 0
VERTEX
 8
CUBE_2
 10
0.0819
 20
0.043
 30
0.1638
 70
192
 0
VERTEX
 8
CUBE_2
 10
-0.0681
 20
0.2122
 30
0.1638
 70
192
 0
VERTEX
 8
CUBE_2
 10
-0.0681
 20
0.043
 30
0.1638
 70
192
 0
VERTEX
 8
CUBE_2
 10
-0.0681
 20
0.2122
 30
0.1558
 70
192
 0
VERTEX
 8
CUBE_2
 10
-0.0681
 20
0.043
 30
0.1558
 70
192
 0
VERTEX
 8
CUBE_2
 10
0.0819
 20
0.2122
 30
0.1558
 70
192
 0
VERTEX
 8
CUBE_2
 10
0.0819
 20
0.043
 30
0.1558
 70
192
 0
VERTEX
 8
CUBE_2
 10
0
 20
0
 30
0
 70
128
 71
1
 72
2
 73
4
 74
3
 0
VERTEX
 8
CUBE_2
 10
0
 20
0
 30
0
 70
128
 71
3
 72
4
 73
6
 74
5
 0
VERTEX
 8
CUBE_2
 10
0
 20
0
 30
0
 70
128
 71
5
 72
6
 73
8
 74
7
 0
VERTEX
 8
CUBE_2
 10
0
 20
0
 30
0
 70
128
 71
7
 72
8
 73
2
 74
1
 0
VERTEX
 8
CUBE_2
 10
0
 20
0
 30
0
 70
128
 71
2
 72
8
 73
6
 74
4
 0
VERTEX
 8
CUBE_2
 10
0
 20
0
 30
0
 70
128
 71
7
 72
1
 73
3
 74
5
 0
SEQEND
 0
POLYLINE
 8
CUBE_1
 66
1
 10
0.0
 20
0.0
 30
0.0
 70
64
 71
8
 72
6
 0
VERTEX
 8
CUBE_1
 10
-0.0678
 20
0.2122
 30
0.1633
 70
192
 0
VERTEX
 8
CUBE_1
 10
-0.0678
 20
0.043
 30
0.1633
 70
192
 0
VERTEX
 8
CUBE_1
 10
-0.0678
 20
0.2122
 30
0.0133
 70
192
 0
VERTEX
 8
CUBE_1
 10
-0.0678
 20
0.043
 30
0.0133
 70
192
 0
VERTEX
 8
CUBE_1
 10
-0.0598
 20
0.2122
 30
0.0133
 70
192
 0
VERTEX
 8
CUBE_1
 10
-0.0598
 20
0.043
 30
0.0133
 70
192
 0
VERTEX
 8
CUBE_1
 10
-0.0598
 20
0.2122
 30
0.1633
 70
192
 0
VERTEX
 8
CUBE_1
 10
-0.0598
 20
0.043
 30
0.1633
 70
192
 0
VERTEX
 8
CUBE_1
 10
0
 20
0
 30
0
 70
128
 71
1
 72
2
 73
4
 74
3
 0
VERTEX
 8
CUBE_1
 10
0
 20
0
 30
0
 70
128
 71
3
 72
4
 73
6
 74
5
 0
VERTEX
 8
CUBE_1
 10
0
 20
0
 30
0
 70
128
 71
5
 72
6
 73
8
 74
7
 0
VERTEX
 8
CUBE_1
 10
0
 20
0
 30
0
 70
128
 71
7
 72
8
 73
2
 74
1
 0
VERTEX
 8
CUBE_1
 10
0
 20
0
 30
0
 70
128
 71
2
 72
8
 73
6
 74
4
 0
VERTEX
 8
CUBE_1
 10
0
 20
0
 30
0
 70
128
 71
7
 72
1
 73
3
 74
5
 0
SEQEND
 0
ENDSEC
 0
EOF
